<svg width="350" height="88" viewBox="0 0 350 88" fill="none" xmlns="http://www.w3.org/2000/svg">
<g clip-path="url(#clip0_548_6219)">
<path fill-rule="evenodd" clip-rule="evenodd" d="M332.206 80.3285H337.671V74.4194H332.206V65.515H349.997V83.3237H332.206V80.3285Z" fill="black"/>
<path fill-rule="evenodd" clip-rule="evenodd" d="M229.111 26.7769H226.622V5.09732H229.374V14.8462C229.858 13.9036 230.563 13.1885 231.482 12.6974C232.4 12.2063 233.447 11.9624 234.616 11.9624C235.999 11.9624 237.184 12.2953 238.166 12.9545C239.15 13.6169 239.904 14.5266 240.431 15.6801C240.958 16.8336 241.224 18.1552 241.224 19.6449C241.224 21.0917 240.948 22.3804 240.398 23.5108C239.851 24.6446 239.071 25.5344 238.064 26.1771C237.053 26.823 235.854 27.146 234.461 27.146C233.332 27.146 232.311 26.889 231.399 26.3781C230.487 25.8706 229.799 25.1324 229.328 24.1667L229.111 26.7769ZM229.404 19.5394C229.404 20.5314 229.588 21.4114 229.951 22.1793C230.316 22.9472 230.84 23.5471 231.521 23.9788C232.203 24.4106 233.013 24.6248 233.951 24.6248C234.896 24.6248 235.703 24.4073 236.371 23.9722C237.04 23.5372 237.553 22.9374 237.909 22.1727C238.264 21.4081 238.442 20.5314 238.442 19.5394C238.442 18.5507 238.264 17.674 237.909 16.916C237.553 16.158 237.04 15.5581 236.371 15.1164C235.703 14.6781 234.896 14.4573 233.951 14.4573C233.013 14.4573 232.203 14.6749 231.521 15.1132C230.84 15.5483 230.316 16.1448 229.951 16.9028C229.588 17.6641 229.404 18.5408 229.404 19.5394ZM247.78 14.5991C248.03 13.963 248.432 13.4224 248.982 12.9841C249.719 12.3908 250.654 12.0909 251.787 12.0909C252.027 12.0909 252.264 12.1042 252.492 12.1272C252.722 12.1536 252.972 12.1964 253.242 12.2656V14.8034H252.014C250.71 14.8034 249.673 15.1824 248.912 15.9372C248.149 16.6919 247.767 17.763 247.767 19.1505V26.7769H245.014V12.3942H247.602L247.78 14.5991ZM259.745 26.7769H256.992V12.381H259.478L259.771 14.5892C260.236 13.7619 260.894 13.1192 261.747 12.6611C262.603 12.203 263.538 11.9756 264.555 11.9756C266.445 11.9756 267.835 12.5128 268.73 13.5872C269.623 14.665 270.071 16.1217 270.071 17.9574V26.7769H267.318V18.5869C267.318 17.1335 267.005 16.0887 266.373 15.446C265.744 14.8033 264.898 14.4837 263.838 14.4837C262.54 14.4837 261.533 14.9056 260.818 15.7559C260.101 16.6029 259.745 17.73 259.745 19.1373V26.7769ZM276.096 20.1261C276.188 21.5334 276.573 22.6374 277.252 23.4416C278.035 24.3677 279.165 24.8324 280.64 24.8324C281.723 24.8324 282.609 24.6149 283.297 24.1831C283.988 23.7514 284.443 23.1285 284.666 22.3111H287.268C286.925 23.8437 286.171 25.0302 285.009 25.8772C283.85 26.7209 282.378 27.146 280.6 27.146C279.194 27.146 277.953 26.8263 276.876 26.1837C275.8 25.5443 274.96 24.6577 274.351 23.5207C273.745 22.3869 273.439 21.0719 273.439 19.5822C273.439 18.0859 273.735 16.7643 274.331 15.624C274.924 14.4837 275.747 13.5905 276.804 12.9446C277.861 12.2986 279.079 11.9756 280.462 11.9756C281.835 11.9756 283.03 12.2689 284.044 12.8589C285.058 13.4488 285.845 14.2695 286.402 15.3307C286.961 16.3887 287.241 17.6345 287.241 19.0681V20.103L276.096 20.1261ZM276.152 18.2705H284.485C284.485 17.0676 284.123 16.1019 283.396 15.3768C282.668 14.6517 281.693 14.2893 280.475 14.2893C279.556 14.2893 278.769 14.4903 278.111 14.8956C277.456 15.2977 276.952 15.8877 276.6 16.6622C276.386 17.1368 276.234 17.674 276.152 18.2705ZM278.951 10.6836L276.514 6.63642H278.806L280.501 9.38182L282.177 6.63642H284.472L282.036 10.6836H278.951ZM293.612 26.7769H290.86V12.381H293.349L293.642 14.5892C294.106 13.7619 294.765 13.1192 295.618 12.6611C296.474 12.203 297.409 11.9756 298.426 11.9756C300.313 11.9756 301.705 12.5128 302.598 13.5872C303.493 14.665 303.941 16.1217 303.941 17.9574V26.7769H301.189V18.5869C301.189 17.1335 300.872 16.0887 300.244 15.446C299.615 14.8033 298.769 14.4837 297.708 14.4837C296.411 14.4837 295.404 14.9056 294.689 15.7559C293.971 16.6029 293.612 17.73 293.612 19.1373V26.7769ZM306.901 22.588H309.532C309.552 23.3164 309.818 23.8964 310.339 24.3216C310.862 24.7467 311.573 24.9609 312.482 24.9609C313.463 24.9609 314.217 24.7698 314.751 24.3842C315.281 24.0019 315.547 23.4845 315.547 22.8385C315.547 22.3573 315.406 21.9585 315.123 21.6454C314.843 21.329 314.323 21.0818 313.562 20.8972L311.037 20.2909C309.772 19.9844 308.827 19.5064 308.205 18.8539C307.583 18.2013 307.27 17.3477 307.27 16.293C307.27 15.4065 307.5 14.6386 307.965 13.9926C308.426 13.3466 309.068 12.849 309.884 12.4996C310.701 12.1503 311.639 11.9756 312.696 11.9756C313.743 11.9756 314.658 12.1602 315.439 12.5293C316.219 12.8951 316.828 13.4159 317.269 14.0849C317.711 14.7539 317.938 15.5515 317.948 16.4743H315.317C315.294 15.7328 315.044 15.156 314.57 14.7408C314.095 14.3255 313.44 14.1212 312.604 14.1212C311.741 14.1212 311.076 14.3024 310.609 14.6683C310.138 15.0374 309.904 15.5482 309.904 16.2041C309.904 17.173 310.609 17.8322 312.021 18.1749L314.543 18.7814C315.771 19.0714 316.683 19.5197 317.283 20.1327C317.882 20.7457 318.181 21.5861 318.181 22.6572C318.181 23.5635 317.941 24.3578 317.457 25.0367C316.973 25.7124 316.301 26.2331 315.442 26.5989C314.583 26.9615 313.578 27.146 312.436 27.146C310.747 27.146 309.404 26.7275 308.403 25.8937C307.402 25.0598 306.901 23.959 306.901 22.588ZM324.576 26.7769H321.823V5.09732H324.576V19.1505L330.976 12.381H334.447L328.948 18.1123L334.401 26.7769H331.223L327.038 20.1162L324.576 22.6836V26.7769ZM341.756 27.146C340.228 27.146 339.03 26.7439 338.164 25.9365C337.295 25.1323 336.86 24.0809 336.86 22.7791C336.86 21.4575 337.328 20.3996 338.266 19.6053C339.205 18.811 340.522 18.343 342.224 18.2079L346.754 17.8486V17.4499C346.754 16.6391 346.606 15.9965 346.31 15.5186C346.017 15.0407 345.612 14.6979 345.101 14.4936C344.591 14.2859 344.005 14.1838 343.347 14.1838C342.188 14.1838 341.292 14.4244 340.66 14.9055C340.028 15.3834 339.712 16.0623 339.712 16.939H337.295C337.295 15.9305 337.552 15.0538 338.059 14.3123C338.566 13.5707 339.29 12.994 340.222 12.5853C341.157 12.1799 342.237 11.9756 343.465 11.9756C344.667 11.9756 345.714 12.1832 346.606 12.6018C347.499 13.0171 348.197 13.6532 348.697 14.5101C349.201 15.367 349.454 16.4447 349.454 17.7498V26.7769H347.084L346.804 24.4369C346.428 25.2707 345.783 25.9299 344.871 26.4144C343.959 26.9021 342.922 27.146 341.756 27.146ZM342.556 24.9906C343.87 24.9906 344.901 24.5885 345.645 23.7876C346.392 22.9868 346.768 21.9156 346.768 20.5776V19.7998L343.103 20.103C341.868 20.2051 340.986 20.4853 340.452 20.9434C339.919 21.4048 339.652 21.9783 339.652 22.6704C339.652 23.4416 339.912 24.0217 340.433 24.4106C340.953 24.7962 341.661 24.9906 342.556 24.9906ZM347.242 6.78479L344.7 10.6836H342.573L344.548 6.78479H347.242ZM229.374 54.3757H226.622V39.9798H229.111L229.404 42.188C229.868 41.3607 230.527 40.718 231.38 40.2599C232.236 39.8018 233.171 39.5744 234.188 39.5744C236.075 39.5744 237.468 40.1116 238.363 41.1893C239.255 42.2637 239.703 43.7205 239.703 45.5562V54.3757H236.951V46.1824C236.951 44.7322 236.638 43.6876 236.006 43.0449C235.377 42.4022 234.531 42.0825 233.47 42.0825C232.173 42.0825 231.166 42.5044 230.451 43.3547C229.733 44.2017 229.374 45.3288 229.374 46.7361V54.3757ZM245.729 47.7249C245.821 49.1322 246.206 50.2395 246.884 51.0404C247.668 51.9665 248.797 52.4312 250.269 52.4312C251.352 52.4312 252.238 52.2136 252.929 51.7819C253.618 51.3502 254.075 50.7273 254.299 49.9099H256.9C256.555 51.4425 255.804 52.629 254.642 53.476C253.479 54.3197 252.011 54.7449 250.233 54.7449C248.827 54.7449 247.586 54.4218 246.509 53.7825C245.432 53.1431 244.589 52.2566 243.984 51.1195C243.374 49.9858 243.071 48.6707 243.071 47.181C243.071 45.6814 243.368 44.3631 243.964 43.2228C244.556 42.0825 245.38 41.1893 246.436 40.5434C247.49 39.8974 248.712 39.5744 250.095 39.5744C251.468 39.5744 252.663 39.8677 253.677 40.4577C254.691 41.0476 255.475 41.8683 256.034 42.9262C256.594 43.9874 256.874 45.2333 256.874 46.6669V47.6985L245.729 47.7249ZM245.785 45.8693H254.118C254.118 44.6631 253.753 43.7007 253.025 42.9756C252.297 42.2505 251.326 41.8881 250.108 41.8881C249.189 41.8881 248.402 42.0891 247.744 42.4944C247.088 42.8998 246.585 43.4865 246.232 44.261C246.015 44.7356 245.867 45.2728 245.785 45.8693ZM270.512 54.3757H259.32V52.1247L267.081 42.2967H259.32V39.9798H270.512V42.2473L262.692 52.0588H270.512V54.3757ZM278.401 54.7449C276.873 54.7449 275.678 54.3394 274.809 53.5353C273.939 52.7311 273.505 51.6798 273.505 50.378C273.505 49.0564 273.976 47.9984 274.911 47.2041C275.849 46.4098 277.166 45.9418 278.868 45.8067L283.399 45.4474V45.0487C283.399 44.2379 283.251 43.5953 282.958 43.1174C282.661 42.6395 282.26 42.2967 281.746 42.0924C281.236 41.8847 280.65 41.7826 279.991 41.7826C278.832 41.7826 277.936 42.0232 277.304 42.5043C276.672 42.9822 276.356 43.6611 276.356 44.5378H273.943C273.943 43.5293 274.196 42.6526 274.703 41.9111C275.214 41.1695 275.935 40.5928 276.866 40.1841C277.801 39.7787 278.885 39.5744 280.113 39.5744C281.311 39.5744 282.358 39.782 283.251 40.2006C284.143 40.6159 284.841 41.252 285.345 42.1089C285.848 42.9658 286.099 44.0435 286.099 45.3486V54.3757H283.728L283.452 52.039C283.073 52.8695 282.428 53.5287 281.515 54.0131C280.603 54.5009 279.566 54.7449 278.401 54.7449ZM279.201 52.5894C280.515 52.5894 281.545 52.1873 282.293 51.3864C283.04 50.5856 283.412 49.5144 283.412 48.1763V47.3986L279.747 47.7018C278.516 47.8039 277.63 48.0841 277.097 48.5422C276.563 49.0036 276.297 49.5804 276.297 50.2692C276.297 51.0404 276.557 51.6205 277.077 52.0094C277.597 52.395 278.305 52.5894 279.201 52.5894ZM283.886 34.3803L281.348 38.2824H279.217L281.193 34.3803H283.886ZM293.803 54.3757L287.999 39.9798H290.955L294.103 48.005C294.353 48.6872 294.58 49.3266 294.778 49.9165C294.975 50.5065 295.134 51.0174 295.249 51.4491C295.377 50.9745 295.548 50.4406 295.756 49.8539C295.963 49.264 296.19 48.6476 296.444 48.005L299.667 39.9798H302.532L296.546 54.3757H293.803ZM305.986 54.3757V39.9798H308.738V54.3757H305.986ZM307.349 36.5423C306.842 36.5423 306.411 36.3643 306.055 36.0084C305.696 35.6491 305.518 35.2239 305.518 34.7263C305.518 34.222 305.696 33.787 306.055 33.4278C306.411 33.0685 306.842 32.8906 307.349 32.8906C307.846 32.8906 308.274 33.0685 308.633 33.4278C308.989 33.787 309.17 34.222 309.17 34.7263C309.17 35.2239 308.989 35.6491 308.633 36.0084C308.274 36.3643 307.846 36.5423 307.349 36.5423ZM312.314 50.1835H314.948C314.965 50.9152 315.235 51.4952 315.755 51.9204C316.275 52.3455 316.99 52.5597 317.895 52.5597C318.876 52.5597 319.634 52.3686 320.164 51.983C320.694 51.6007 320.96 51.0833 320.96 50.4373C320.96 49.9561 320.819 49.5573 320.539 49.2442C320.256 48.9278 319.736 48.6806 318.978 48.496L316.453 47.8897C315.185 47.5831 314.24 47.1052 313.618 46.4527C312.996 45.8001 312.683 44.9465 312.683 43.8951C312.683 43.0053 312.917 42.2374 313.378 41.5914C313.842 40.9454 314.481 40.4478 315.297 40.0984C316.117 39.7491 317.052 39.5744 318.109 39.5744C319.159 39.5744 320.075 39.759 320.852 40.1248C321.632 40.4939 322.245 41.0146 322.682 41.6837C323.124 42.3527 323.351 43.1503 323.361 44.0731H320.73C320.707 43.3316 320.46 42.7548 319.983 42.3395C319.508 41.9243 318.853 41.72 318.017 41.72C317.157 41.72 316.492 41.9012 316.022 42.267C315.554 42.6362 315.32 43.147 315.32 43.8028C315.32 44.7718 316.025 45.431 317.434 45.7737L319.959 46.3802C321.184 46.6702 322.1 47.1185 322.699 47.7315C323.298 48.3445 323.594 49.1849 323.594 50.256C323.594 51.1623 323.354 51.9566 322.87 52.6355C322.389 53.3112 321.714 53.8319 320.855 54.1977C319.996 54.5603 318.995 54.7449 317.852 54.7449C316.163 54.7449 314.816 54.3263 313.816 53.4925C312.815 52.6586 312.314 51.5578 312.314 50.1835ZM329.992 54.3757H327.239V32.6961H329.992V54.3757ZM338.872 54.7449C337.344 54.7449 336.149 54.3394 335.28 53.5353C334.411 52.7311 333.976 51.6798 333.976 50.378C333.976 49.0564 334.447 47.9984 335.382 47.2041C336.32 46.4098 337.637 45.9418 339.34 45.8067L343.87 45.4474V45.0487C343.87 44.2379 343.722 43.5953 343.426 43.1174C343.133 42.6395 342.731 42.2967 342.217 42.0924C341.707 41.8847 341.121 41.7826 340.462 41.7826C339.303 41.7826 338.408 42.0232 337.776 42.5043C337.143 42.9822 336.827 43.6611 336.827 44.5378H334.414C334.414 43.5293 334.667 42.6526 335.174 41.9111C335.685 41.1695 336.406 40.5928 337.338 40.1841C338.273 39.7787 339.356 39.5744 340.584 39.5744C341.783 39.5744 342.83 39.782 343.722 40.2006C344.614 40.6159 345.312 41.252 345.816 42.1089C346.316 42.9658 346.57 44.0435 346.57 45.3486V54.3757H344.199L343.923 52.039C343.544 52.8695 342.899 53.5287 341.987 54.0131C341.075 54.5009 340.038 54.7449 338.872 54.7449ZM339.672 52.5894C340.986 52.5894 342.016 52.1873 342.76 51.3864C343.508 50.5856 343.883 49.5144 343.883 48.1763V47.3986L340.219 47.7018C338.987 47.8039 338.102 48.0841 337.568 48.5422C337.035 49.0036 336.768 49.5804 336.768 50.2692C336.768 51.0404 337.028 51.6205 337.548 52.0094C338.069 52.395 338.776 52.5894 339.672 52.5894ZM344.357 34.3803L341.816 38.2824H339.689L341.664 34.3803H344.357ZM232.39 82.3437C231.001 82.3437 229.806 82.0206 228.805 81.3746C227.804 80.7287 227.03 79.8422 226.49 78.7084C225.95 77.578 225.68 76.2794 225.68 74.8161C225.68 73.3429 225.953 72.0345 226.497 70.8843C227.043 69.734 227.827 68.8277 228.848 68.1652C229.872 67.5028 231.096 67.1732 232.522 67.1732C233.628 67.1732 234.623 67.4039 235.499 67.862C236.378 68.3234 237.053 68.9991 237.527 69.8889V60.2949H240.279V81.9745H237.793L237.573 79.3643C237.105 80.3299 236.411 81.0682 235.492 81.5757C234.573 82.0866 233.54 82.3437 232.39 82.3437ZM232.953 79.8224C233.902 79.8224 234.712 79.6081 235.39 79.1764C236.068 78.7447 236.588 78.1448 236.951 77.3769C237.316 76.609 237.497 75.729 237.497 74.737C237.497 73.7384 237.316 72.8617 236.951 72.1004C236.588 71.3424 236.068 70.7458 235.39 70.3075C234.712 69.8725 233.902 69.6549 232.953 69.6549C232.015 69.6549 231.212 69.8758 230.54 70.3141C229.865 70.7557 229.351 71.3556 228.996 72.1136C228.64 72.8716 228.462 73.7483 228.462 74.737C228.462 75.729 228.64 76.6057 228.996 77.3703C229.351 78.1349 229.865 78.7348 230.54 79.1698C231.212 79.6048 232.015 79.8224 232.953 79.8224ZM245.014 81.9745V67.5786H247.767V81.9745H245.014ZM246.377 64.1443C245.873 64.1443 245.439 63.9631 245.083 63.6072C244.724 63.2479 244.547 62.8228 244.547 62.3252C244.547 61.8176 244.724 61.3858 245.083 61.0266C245.439 60.6673 245.873 60.4894 246.377 60.4894C246.874 60.4894 247.302 60.6673 247.661 61.0266C248.017 61.3858 248.198 61.8176 248.198 62.3252C248.198 62.8228 248.017 63.2479 247.661 63.6072C247.302 63.9631 246.874 64.1443 246.377 64.1443ZM256.548 81.9745L250.743 67.5786H253.7L256.848 75.6038C257.101 76.286 257.325 76.9254 257.526 77.5153C257.723 78.1053 257.878 78.6161 257.993 79.0479C258.125 78.5733 258.293 78.0394 258.5 77.4527C258.708 76.8628 258.938 76.2464 259.192 75.6038L262.415 67.5786H265.277L259.291 81.9745H256.548ZM272.194 82.3437C270.667 82.3437 269.468 81.9415 268.599 81.1341C267.73 80.3299 267.295 79.2786 267.295 77.9768C267.295 76.6552 267.766 75.5972 268.704 74.8029C269.639 74.0086 270.96 73.5406 272.658 73.4055L277.189 73.0462V72.6475C277.189 71.8367 277.041 71.1941 276.748 70.7162C276.452 70.2383 276.05 69.8955 275.536 69.6912C275.026 69.4835 274.44 69.3814 273.781 69.3814C272.622 69.3814 271.727 69.6219 271.095 70.1031C270.462 70.581 270.146 71.2599 270.146 72.1366H267.733C267.733 71.1281 267.986 70.2514 268.493 69.5099C269.004 68.765 269.725 68.1916 270.66 67.7829C271.592 67.3775 272.675 67.1732 273.903 67.1732C275.105 67.1732 276.152 67.3808 277.041 67.7994C277.933 68.2147 278.631 68.8507 279.135 69.7076C279.639 70.5613 279.889 71.6423 279.889 72.9474V81.9745H277.518L277.242 79.6345C276.863 80.4683 276.218 81.1275 275.306 81.6119C274.397 82.0997 273.357 82.3437 272.194 82.3437ZM272.991 80.1882C274.305 80.1882 275.335 79.7861 276.083 78.9852C276.83 78.1843 277.202 77.1132 277.202 75.7751V74.9974L273.541 75.3006C272.306 75.4027 271.424 75.6829 270.887 76.141C270.354 76.6024 270.087 77.1759 270.087 77.868C270.087 78.6392 270.347 79.2193 270.867 79.6082C271.388 79.9938 272.095 80.1882 272.991 80.1882ZM289.918 82.3437C288.529 82.3437 287.333 82.0206 286.333 81.3746C285.332 80.7287 284.561 79.8422 284.021 78.7084C283.481 77.578 283.211 76.2794 283.211 74.8161C283.211 73.3429 283.481 72.0345 284.028 70.8843C284.571 69.734 285.355 68.8277 286.379 68.1652C287.399 67.5028 288.624 67.1732 290.05 67.1732C291.156 67.1732 292.15 67.4039 293.026 67.862C293.905 68.3234 294.58 68.9991 295.058 69.8889V60.2949H297.807V81.9745H295.321L295.104 79.3643C294.633 80.3299 293.938 81.0682 293.02 81.5757C292.101 82.0866 291.067 82.3437 289.918 82.3437ZM290.481 79.8224C291.429 79.8224 292.243 79.6081 292.918 79.1764C293.596 78.7447 294.116 78.1448 294.482 77.3769C294.844 76.609 295.028 75.729 295.028 74.737C295.028 73.7384 294.844 72.8617 294.482 72.1004C294.116 71.3424 293.596 70.7458 292.918 70.3075C292.243 69.8725 291.429 69.6549 290.481 69.6549C289.543 69.6549 288.739 69.8758 288.068 70.3141C287.393 70.7557 286.879 71.3556 286.523 72.1136C286.168 72.8716 285.99 73.7483 285.99 74.737C285.99 75.729 286.168 76.6057 286.523 77.3703C286.879 78.1349 287.393 78.7348 288.068 79.1698C288.739 79.6048 289.543 79.8224 290.481 79.8224ZM305.36 81.9745H302.608V60.2949H305.36V81.9745ZM314.244 82.3437C312.716 82.3437 311.517 81.9415 310.648 81.1341C309.782 80.3299 309.348 79.2786 309.348 77.9768C309.348 76.6552 309.815 75.5972 310.753 74.8029C311.692 74.0086 313.009 73.5406 314.708 73.4055L319.238 73.0462V72.6475C319.238 71.8367 319.094 71.1941 318.797 70.7162C318.501 70.2383 318.099 69.8955 317.589 69.6912C317.078 69.4835 316.492 69.3814 315.834 69.3814C314.675 69.3814 313.779 69.6219 313.144 70.1031C312.515 70.581 312.199 71.2599 312.199 72.1366H309.782C309.782 71.1281 310.036 70.2514 310.546 69.5099C311.053 68.765 311.774 68.1916 312.709 67.7829C313.644 67.3775 314.724 67.1732 315.952 67.1732C317.154 67.1732 318.201 67.3808 319.094 67.7994C319.983 68.2147 320.681 68.8507 321.184 69.7076C321.688 70.5613 321.938 71.6423 321.938 72.9474V81.9745H319.571L319.291 79.6345C318.912 80.4683 318.267 81.1275 317.358 81.6119C316.446 82.0997 315.409 82.3437 314.244 82.3437ZM315.04 80.1882C316.354 80.1882 317.385 79.7861 318.132 78.9852C318.879 78.1843 319.252 77.1132 319.252 75.7751V74.9974L315.59 75.3006C314.356 75.4027 313.473 75.6829 312.94 76.141C312.403 76.6024 312.136 77.1759 312.136 77.868C312.136 78.6392 312.396 79.2193 312.917 79.6082C313.437 79.9938 314.145 80.1882 315.04 80.1882Z" fill="black"/>
<path fill-rule="evenodd" clip-rule="evenodd" d="M139.097 35.5337V59.4741H137.208V63.0691H139.097V74.9916H133.816V81.8513H138.531V79.4432H142.728V82.7422H139.097V85.2672H119.737V65.7556H109.432V60.5225H110.36V61.1274H113.951V59.2225H120.354V63.6041H132.743V51.4592H120.354V56.6529H113.828V50.1211H119.641C119.564 49.2913 119.442 48.5161 119.274 47.7955H116.97V44.4089H117.906C116.32 41.9334 113.704 40.6957 110.056 40.6957C107.314 40.6957 104.692 41.7453 102.191 43.8447C99.6903 45.944 98.4398 49.4158 98.4398 54.2613V64.1391H100.133V70.0953H92.0641V67.1166H86.7637V79.2627H101.601V73.1897H103.876V70.2109H109.826V73.1897H118.091V74.8709H109.826V76.1671H105.507V78.3224H104.178V81.0088H98.4398V85.2672H79.0791V82.7345H83.1925V78.3224H79.0791V68.7775H75.0686V61.8517H81.9877V65.9081H83.1925V48.4678H79.0791V25.1921H98.4398V31.0059C102.796 25.8376 108.604 23.2541 115.864 23.2541C122.399 23.2541 127.905 25.6152 132.381 30.3388C133.829 31.8662 135.042 33.5983 136.022 35.5337H139.097ZM208.555 80.3289V85.2672H189.194V80.1803C184.272 84.8644 178.464 87.2052 171.769 87.2052C166.747 87.2052 162.193 86.0004 158.109 83.591H151.447V78.4215H158.32V81.8513H163.455V74.9916H152.886V76.1163H142.728V73.7234H147.973C144.476 68.3848 142.728 62.219 142.728 55.2296C142.728 46.3468 145.55 38.7971 151.197 32.5804C156.844 26.3625 163.701 23.2541 171.769 23.2541C178.464 23.2541 184.272 25.5949 189.194 30.279V-0.00126648H201.827V6.47974H208.555V33.137H214.622V39.233H211.235V36.0014H202.741V41.8978H196.894V51.735H203.931L203.947 49.4069L206.104 49.4221V43.6019H208.555V49.4412L213.159 49.4755L213.1 57.498L208.555 57.465V74.4198H206.568V80.3289H208.555ZM186.461 64.0057C188.282 61.4946 189.194 58.5693 189.194 55.2296C189.194 51.1923 187.862 47.76 185.2 44.9337C184.743 44.4483 184.269 44.0048 183.781 43.6019H190.597V41.8978H181.123C179.445 41.096 177.617 40.6957 175.641 40.6957C171.93 40.6957 168.744 42.1075 166.082 44.9337C163.419 47.76 162.089 51.1923 162.089 55.2296C162.089 59.2669 163.419 62.6993 166.082 65.5256C166.174 65.6234 166.267 65.72 166.361 65.814V63.6295H172.721V69.6607H166.361V68.4382H151.667V71.4982H174.255V69.1752H178.161V71.4982H181.306V69.4231H179.458V64.0057H186.461ZM183.015 43.9807V50.3015H176.99V43.9807H183.015ZM194.782 61.2722H189.474V75.3462H203.221V61.2722H200.874V65.5268H194.782V61.2722ZM65.7691 63.2788V65.9081H72.9269C71.5443 70.3342 69.2388 74.3245 66.0103 77.8789C60.3646 84.0968 53.5065 87.2052 45.4398 87.2052C38.7441 87.2052 32.9359 84.8644 28.0151 80.1803V85.2672H8.65445V77.1647H14.6594V68.3137H8.65445V51.9027H2.82845V42.6768H-9.15527e-05V38.4159H4.25797V40.2382H8.65445V37.384H14.323V39.8887H18.3919V41.0337H38.5461C36.0971 41.6068 33.9186 42.9068 32.0091 44.9337C29.3469 47.76 28.0151 51.1923 28.0151 55.2296C28.0151 59.2669 29.3469 62.6993 32.0091 65.5256C34.6701 68.3505 37.8567 69.7649 41.5676 69.7649C41.7758 69.7649 41.9828 69.7598 42.1884 69.7509V72.4399H47.2793V80.6759H58.3498V69.5959H48.7139V67.6033C49.562 67.0263 50.3656 66.3338 51.1274 65.5256C53.7896 62.6993 55.1201 59.2669 55.1201 55.2296C55.1201 51.1923 53.7896 47.76 51.1274 44.9337C49.6813 43.3986 48.0804 42.2803 46.3246 41.5789H64.7433V40.5521H41.5676V38.7425H19.127V37.384H19.6615V26.243H7.82924V32.8371H2.12895V24.5325H6.25878V17.9905H8.65445V-0.00126648H28.0151V24.3978H21.138V31.8129H33.869V26.027C37.3755 24.178 41.2325 23.2541 45.4398 23.2541C53.5065 23.2541 60.3646 26.3625 66.0103 32.5804C70.1656 37.1553 72.7923 42.4506 73.8905 48.4678H65.7691V56.4877H68.3158V50.2621H75.2362V57.1879H69.1614V63.2788H65.7691ZM34.8288 69.0863H29.7633V74.1567H34.8288V69.0863ZM110.36 58.8158H106.022V54.795H112.155V57.531H110.36V58.8158ZM212.085 75.317V79.4305H207.946V75.317H212.085Z" fill="black"/>
</g>
<defs>
<clipPath id="clip0_548_6219">
<rect width="350" height="87.3383" fill="black"/>
</clipPath>
</defs>
</svg>
