<svg id="Layer_1" data-name="Layer 1" xmlns="http://www.w3.org/2000/svg" viewBox="0 0 1740 660"><title>Artboard 1</title><polygon points="584.36 268.47 734.66 268.47 734.66 253.04 584.38 253.04 584.38 116.72 734.66 116.72 734.66 101.87 569.87 101.87 569.87 412.59 734.66 412.59 734.66 397.62 584.36 397.62 584.36 268.47"/><path d="M644.2,351V311.91H781.46V197H644.2V157.94H781.46v-108H515.1V466H781.49V351H644.2Zm131,102.8H529V63.11H775.23V151h-145v59.2h145V305h-145v59.28H644.2v0h131Z"/><path d="M614.6,289.47l146.95,0V224.75l-6.09,0H614.52V137H761.58V76H541.77V441.47H761.55v-64H614.6Zm133,94.25v43h-192V89.21H747.63v41.54H599.4V238H747.6v45.14H599.47V383.72Z"/><path d="M979.67,223c50.82-.64,101.65-.18,152.48-.2,2.11,0,4.23-.2,6.6-.32V122.28h-5.93c-48.36,0-96.72.12-145.07-.06a215.67,215.67,0,0,0-53.29,6.19c-23.68,5.89-46.14,15-65.7,31.24-6.15,5.1-12.23,10.35-17.92,16a154,154,0,0,0-39.84,66,264.43,264.43,0,0,0-11.49,75.57q-.1,58.76,0,117.51,0,52.19,0,104.35c0,2.12.17,4.23.27,6.7H855c9.12,0,18.23.08,27.34,0s18.08.44,27.4-.39V480.59q0-92.44,0-184.89c0-12.08,2.18-23.82,8-33.9C932,237.17,952.9,223.37,979.67,223Z"/><path d="M1670.31,338.28c-23-5.58-13.91-36.52-2.08-53.48,12.72-18.26,24.94-28.46,34.53-45.41,46.43-67.73,4.93-203.5-196.55-100.64-14.26,8.72-16.62,18.51-35.32-3.09-19.87-23-61.72-23-90.88-13.88-32.71,10.29-96.8,43.45-118.31,131.9-8.27,34-3.2,47.57,31.59,48.6,21.78.65,8.34,14.56,1.36,28-10.93,21.2-22.13,40.89-34.59,69.68-14.49,33.47-22.79,51.29-22.85,94.13a610.41,610.41,0,0,1-71.71,65.72q-39.16,30.38-77.06,48.52t-66,18.14q-11.93,0-20-5.06a37.51,37.51,0,0,1-12.77-13.08,60.1,60.1,0,0,1-6.81-17.72,91.53,91.53,0,0,1-2.13-19.83,154.47,154.47,0,0,1,6-42.2,176.74,176.74,0,0,1,15.32-38q28.11-5.89,64.72-18.14a559.41,559.41,0,0,0,68.55-27.85q31.92-15.62,54.07-34.59t22.14-39.24q0-16.87-11.92-25.74t-33.21-8.86q-38.33,0-80,22.78a340.14,340.14,0,0,0-76.64,57.38,331.35,331.35,0,0,0-57.48,75.52Q929.64,532.85,929.64,570q0,33.76,19.58,51.9T1004.57,640q28.94,0,59.18-10.54a315.64,315.64,0,0,0,60-28.7,468.75,468.75,0,0,0,57.48-41.34,706.8,706.8,0,0,0,51.94-48.1q3.16-3.24,6.24-6.5c11.31,32.29,59.22,38,103.41,18.93,25.17-10.88,79.23-47.64,117.54-87.36,0,10.08-.38,17.27.07,24.38,3.1,48.56,30.6,71.32,79.13,68.75,21.08-1.1,118.77-38.5,162.13-116.09C1719.19,382.17,1725.35,351.66,1670.31,338.28Zm-638.92,100.9a347.26,347.26,0,0,1,37-44.31,266.93,266.93,0,0,1,41.3-34.59q20.87-13.92,38.74-13.92a22.39,22.39,0,0,1,15.76,5.9q6.38,5.92,6.38,17.72,0,22-18.73,40.93a194.2,194.2,0,0,1-44.7,33.33,342,342,0,0,1-54.07,24Q1025,478,1006.27,481.36,1014.78,462.81,1031.39,439.18ZM1476.08,399c-.17-16.47-9.34-35.75-31.15-41.15-17.51-4.33-22.71-6.78-11.3-21.85,8.18-10.8,46.61-48.08,65.82-34.72S1506.21,369.14,1476.08,399Z"/><path d="M1262.13,159.7l-54,15.58c-5.2,53-7.27,83.07-48.69,133.17h6.7C1224.22,256.27,1244.93,215,1262.13,159.7Z"/><path d="M406.37,561.1c-64.79,0-126.38-44-196.33-79.68a122.58,122.58,0,0,0,23.84,2.27c84.33,0,140.29-43.68,140.29-95,0-32.2-21.47-66.68-69.76-96.58S227,247.63,227,217.74c0-12.13,7.7-25.44,18.94-36.29,37.09,13.3,76.45,25.93,115.22,28.63,52.89-11.5,140.29-54.42,140.29-114.2C501.43,35.33,444.7,20,367.27,20v9.2c65.16,0,123.42,9.19,123.42,66.68,0,26.82-19.16,48.28-49.83,48.28-64.39,0-210-84.31-273.67-88.14C136.52,75.18,46.06,131.9,46.06,200.88c0,39.09,28.37,63.61,71.3,63.61V255.3c-33,0-60.56-19.16-60.56-54.42,0-36,28.36-54.42,64.39-54.42,31.12,0,70.34,15.18,113.09,30.77-30.93,34.7-62.49,71.87-62.49,104.12,0,24.53,19.16,42.16,57.49,66.69s63.63,40.62,63.63,72.81c0,26.06-29.13,52.11-62.09,52.11-40.64,0-80.5-26-80.5-75.11,0-13.79,2.3-26.82,6.9-42.15l-10.73-2.3c-4.6,15.33-6.9,29.12-6.9,44.45,0,27.64,10.58,49.12,27.68,63.69A367.53,367.53,0,0,0,125,446.91C42.23,491.36,20,511.29,20,558.8,20,578,26.9,597.13,39.17,614l8.43-5.36C36.86,593.3,30.73,578,30.73,560.34,30.73,530.45,44.53,519,66,519c36,0,93.52,30.66,148.72,59.78,161.75,85.08,254.51,82,326.57-95.8l-8.2-3.36C505.5,538.59,449.3,561.1,406.37,561.1Z"/></svg>