<?xml version="1.0" encoding="UTF-8"?>
<svg id="Vrstva_1" xmlns="http://www.w3.org/2000/svg" version="1.1" viewBox="0 0 1000 126.7">
  <!-- Generator: Adobe Illustrator 29.4.0, SVG Export Plug-In . SVG Version: 2.1.0 Build 152)  -->
  <path d="M193.4,63.3c0,9-2.8,14.5-9.9,21l-36.9,32.5c-7.1,6.4-14.3,9.9-25.1,9.9H0v-25.3h148.8c9.2,0,17-7.4,17-16.6v-8.8H0v-25.3h165.8v-8.8c0-9.2-7.8-16.6-17-16.6H0V0h121.6c10.8,0,18,3.7,25.1,9.9l36.9,32.5c7.1,6.2,9.9,12,9.9,21h0Z"/>
  <path d="M306.7,59.2h-34.7c-6.1,0-11.1,5-11.1,11.1v34.7h-6.9v-34.7c0-6.1-5-11.1-11.1-11.1h-35v-6.9h35c6.1,0,11.1-5,11.1-11.1V6.2h6.9v35c0,6.1,5,11.1,11.1,11.1h34.7v6.9h0Z"/>
  <path d="M392,76c-4.6,0-8.3-.5-12.2-1.6l25.1,22.1c3.9,3.4,7.8,4.8,12.9,4.8h96.7v25.3h-68.6c-10.8,0-21.9-3.2-30.2-10.8l-67-62.4v73.2h-27.6V0h27.6v34.1c0,9.2,7.8,16.6,17,16.6h104.6c9.2,0,16.6-7.8,16.6-17V0h27.6v11.1c0,10.8-3.5,17.7-9.9,25.1l-36.4,29.9c-7.6,6.2-14.3,9.9-25.1,9.9h-51.1Z"/>
  <path d="M593,76c-4.6,0-8.3-.5-12.2-1.6l25.1,22.1c3.9,3.4,7.8,4.8,12.9,4.8h96.7v25.3h-68.6c-10.8,0-21.9-3.2-30.2-10.8l-67-62.4v73.2h-27.6V0h27.6v34.1c0,9.2,7.8,16.6,17,16.6h104.5c9.2,0,16.6-7.8,16.6-17V0h27.6v11.1c0,10.8-3.5,17.7-9.9,25.1l-36.4,29.9c-7.6,6.2-14.3,9.9-25.1,9.9h-51.1Z"/>
  <g>
    <path d="M761.1,0C780,0,790.6,10.2,790.6,28.5s-10.6,28.5-29.5,28.5h-17.3V0h17.3ZM751.1,50.4h9.9c14.2,0,21.8-7.7,21.8-21.9s-7.6-21.9-21.8-21.9h-9.9v43.8h0Z"/>
    <path d="M800.2,7.9V0h7v7.9s-7,0-7,0ZM800.2,56.9V16.3h7v40.6h-7Z"/>
    <path d="M827.7,56.9l-14.7-40.6h7.5l5.8,17c2.1,6.2,4,11.9,5.9,18.1h.2c1.9-6.2,3.8-11.9,5.8-18.1l5.8-17h7.5l-14.7,40.6s-9.1,0-9.1,0Z"/>
    <path d="M886.8,30.9v15.6c0,4.5.4,7.9,1,10.4h-6.4c-.4-1.8-.6-4.1-.6-5.9h-.2c-2.8,4.3-7.5,6.8-14.1,6.8s-13.8-5-13.8-11.9,3.8-10.9,15.4-12.8c3.6-.6,8.6-1.1,11.8-1.4v-1.6c0-6.7-3.8-9.5-9.2-9.5s-9,3.3-9.3,8.1h-7c.4-7.7,6-13.5,16.3-13.5s16,5,16,15.8h0ZM880,37.1c-3.1.2-7.5.7-10.6,1.3-7,1-9.3,3-9.3,7s3,7,8.3,7,6.4-1.1,8.4-3.2c2.5-2.6,3.3-4.8,3.3-9.6v-2.5h0Z"/>
    <path d="M925.5,56.9v-5.9h-.2c-2.2,4.2-7,6.9-12.5,6.9-10.4,0-17-8.4-17-21.3s6.6-21.3,17-21.3,10.2,2.6,12.4,6.6h.2V0h7v56.9h-6.9ZM903.2,36.5c0,9.5,4.5,15.7,11.4,15.7s11.1-6,11.1-15.7-4.4-15.6-11.1-15.6-11.4,6.1-11.4,15.6Z"/>
    <path d="M944.8,56.9V0h7v56.9h-7Z"/>
    <path d="M1000,36.6c0,13.3-7.4,21.4-19.3,21.4s-19.3-8.2-19.3-21.4,7.4-21.4,19.3-21.4,19.3,8.2,19.3,21.4ZM968.7,36.6c0,9.7,4.6,15.7,11.9,15.7s12-6,12-15.7-4.6-15.7-12-15.7-11.9,6-11.9,15.7h0Z"/>
  </g>
</svg>