<?xml version="1.0" encoding="UTF-8"?>
<svg id="Vrstva_1" xmlns="http://www.w3.org/2000/svg" version="1.1" viewBox="0 0 237.4 74.3">
  <!-- Generator: Adobe Illustrator 29.7.1, SVG Export Plug-In . SVG Version: 2.1.1 Build 8)  -->
  <defs>
    <style>
      .st0 {
        fill: #1c1c1b;
      }
    </style>
  </defs>
  <polygon class="st0" points="88.4 18.2 93.1 18.2 96.6 29.3 96.6 29.3 100.1 18.2 104.8 18.2 104.8 32.8 102 32.8 102 20.7 102 20.7 98 32.8 95.2 32.8 91.3 20.7 91.2 20.8 91.2 32.8 88.4 32.8 88.4 18.2"/>
  <rect class="st0" x="109.3" y="18.2" width="2.9" height="14.6"/>
  <polygon class="st0" points="116.7 18.2 120.3 18.2 125.9 29.1 125.9 29.1 125.9 18.2 128.7 18.2 128.7 32.8 125.2 32.8 119.6 21.9 119.5 21.9 119.5 32.8 116.7 32.8 116.7 18.2"/>
  <rect class="st0" x="133.4" y="18.2" width="2.9" height="14.6"/>
  <path class="st0" d="M148.5,20.9c-.9-.4-2-.6-3-.6s-2.3.4-2.3,2c0,2.5,6.4,1.5,6.4,6.4s-2.5,4.4-5.5,4.4-2.3-.2-3.8-.6l.3-2.6c1,.5,2.2.9,3.3.9s2.6-.6,2.6-1.9c0-2.8-6.4-1.6-6.4-6.5s2.5-4.5,5.1-4.5,2.4.2,3.5.5l-.3,2.4h0Z"/>
  <polygon class="st0" points="153.8 20.5 149.8 20.5 149.8 18.2 160.8 18.2 160.8 20.5 156.8 20.5 156.8 32.8 153.8 32.8 153.8 20.5"/>
  <polygon class="st0" points="162.7 18.2 171.3 18.2 171.3 20.5 165.6 20.5 165.6 24.1 170.8 24.1 170.8 26.4 165.6 26.4 165.6 30.5 171.4 30.5 171.4 32.8 162.7 32.8 162.7 18.2"/>
  <path class="st0" d="M174.8,18.2h3.2c3.1,0,6.9-.1,6.9,4s-1.2,3.1-3,3.4h0c.8.1,1.3.9,1.6,1.6l2.3,5.7h-3.3l-1.8-4.6c-.4-1.1-.8-1.5-2-1.5h-.9v6.1h-2.9v-14.6h0ZM177.7,24.4h1c1.4,0,3.1-.2,3.1-2s-1.6-1.9-3.1-1.9h-1v3.9Z"/>
  <path class="st0" d="M196,20.9c-.9-.4-2-.6-3-.6s-2.3.4-2.3,2c0,2.5,6.4,1.5,6.4,6.4s-2.5,4.4-5.5,4.4-2.3-.2-3.8-.6l.3-2.6c1,.5,2.2.9,3.3.9s2.6-.6,2.6-1.9c0-2.8-6.4-1.6-6.4-6.5s2.5-4.5,5.1-4.5,2.4.2,3.5.5l-.3,2.4h0Z"/>
  <polygon class="st0" points="201.3 20.5 197.3 20.5 197.3 18.2 208.3 18.2 208.3 20.5 204.2 20.5 204.2 32.8 201.3 32.8 201.3 20.5"/>
  <polygon class="st0" points="206.9 18.2 210.1 18.2 213.8 29.7 213.9 29.7 217.6 18.2 220.5 18.2 215.5 32.8 211.9 32.8 206.9 18.2"/>
  <path class="st0" d="M229,17.9c4.6,0,7.2,3.1,7.2,7.5s-2.5,7.6-7.2,7.6-7.2-3.1-7.2-7.6,2.5-7.5,7.2-7.5ZM229,30.8c3,0,4.1-2.7,4.1-5.3s-1.2-5.2-4.1-5.2-4.1,2.6-4.1,5.2,1.1,5.3,4.1,5.3Z"/>
  <polygon class="st0" points="88.4 37.5 91.3 37.5 91.3 43.8 96.6 37.5 100.2 37.5 94.2 44.4 100.5 52.1 96.7 52.1 91.4 45.3 91.3 45.3 91.3 52.1 88.4 52.1 88.4 37.5"/>
  <path class="st0" d="M102.3,37.5h2.9v8.5c0,2.5.8,4.1,3,4.1s3-1.6,3-4.1v-8.5h2.9v9.4c0,3.9-2.2,5.5-6,5.5s-6-1.6-6-5.5c0,0,0-9.4,0-9.4Z"/>
  <polygon class="st0" points="118.4 37.5 121.4 37.5 121.4 49.8 126.9 49.8 126.9 52.1 118.4 52.1 118.4 37.5"/>
  <polygon class="st0" points="129.3 39.8 125.3 39.8 125.3 37.5 136.3 37.5 136.3 39.8 132.3 39.8 132.3 52.1 129.3 52.1 129.3 39.8"/>
  <path class="st0" d="M138.1,37.5h2.9v8.5c0,2.5.8,4.1,3,4.1s3-1.6,3-4.1v-8.5h2.9v9.4c0,3.9-2.2,5.5-6,5.5s-6-1.6-6-5.5v-9.4h0Z"/>
  <path class="st0" d="M154.1,37.5h3.2c3.1,0,6.9-.1,6.9,4s-1.2,3.1-3,3.4h0c.8.1,1.3.9,1.6,1.6l2.4,5.7h-3.3l-1.8-4.6c-.4-1.1-.8-1.5-2-1.5h-.9v6.1h-2.9v-14.6h0ZM157,43.7h1c1.4,0,3.1-.2,3.1-2s-1.6-1.9-3.1-1.9h-1v3.9Z"/>
  <polygon class="st0" points="170.3 46.3 164.9 37.5 168.4 37.5 171.8 43.6 175.4 37.5 178.5 37.5 173.2 46.3 173.2 52.1 170.3 52.1 170.3 46.3"/>
  <path class="st0" d="M69.7,20.2C63.4,8.6,51.2,1.4,38,1.4s-5.9.4-8.7,1.1C14.4,6.2,3.5,18.9,2.1,34.1h0c-.1,1.1-.2,2.2-.2,3.4,0,12.1,6.1,23.4,16.2,30.1,5.9,3.9,12.8,6,19.8,6,14.3,0,27.3-8.5,33.1-21.7,2-4.5,3-9.4,3-14.4s-1.5-11.9-4.4-17.2h0ZM68.8,50.8c-5.3,12.3-17.4,20.2-30.8,20.2s-13-1.9-18.5-5.5c-9.5-6.3-15.1-16.7-15.1-28.1s0-2.1.1-3.1c1.3-14.2,11.5-26,25.3-29.5,2.7-.7,5.4-1,8.2-1,12.3,0,23.7,6.7,29.6,17.6,2.7,4.9,4.1,10.4,4.1,16s-.9,9.2-2.8,13.4h0Z"/>
  <path class="st0" d="M54.1,48.6c-1.8,2.6-4.2,4.7-6.9,6.1l-3.8-7.3c-1.7.9-3.4,1.3-5.3,1.3-6.3,0-11.5-5.2-11.5-11.5v-1.3c0,0-2-.2-2-.2,0,.5-.1,1.1-.1,1.6,0,6.4,4.5,11.8,10.8,13l-.4,6.4c-.6-.1-1.2-.2-1.9-.4-.2,0-.5-.2-.7-.2-.4-.1-.7-.2-1.1-.4-.3,0-.5-.2-.8-.3-.3-.1-.7-.3-1-.4-.3-.1-.5-.3-.7-.4-.3-.2-.6-.3-.9-.5-.2-.2-.5-.3-.7-.5-.3-.2-.6-.4-.8-.6-.2-.2-.4-.4-.7-.6-.3-.2-.5-.4-.8-.6-.2-.2-.4-.4-.6-.6-.2-.2-.5-.5-.7-.7-.2-.2-.4-.5-.6-.7-.2-.2-.4-.4-.5-.6h0s-2.5,1.2-2.5,1.2c-1.8-2.5-3-5.2-3.5-8.1-.3-1.4-.4-2.9-.4-4.5,0-9.2,5.8-17.6,14.3-20.9l.8,2c-7.5,2.8-12.9,10.1-12.9,18.7s.4,4.9,1.4,7.3h.4c0-.1,3-1.1,3-1.1-.8-2-1.2-4.1-1.2-6.2,0-8.9,7.1-16.1,16-16.4.1,0,.3,0,.4,0,5.3,0,10.2,2.6,13.3,6.8l3-2s0,0,0,0l6.1-4.3c-5.1-7.2-13.5-11.6-22.3-11.6-15.1,0-27.3,12.3-27.3,27.3s.2,4,.6,5.9c2.7,12.4,13.9,21.4,26.7,21.4s17.3-4.4,22.4-11.7l-6.4-4.4h0Z"/>
</svg>