<?xml version="1.0" encoding="UTF-8"?>
<svg id="Vrstva_1" xmlns="http://www.w3.org/2000/svg" version="1.1" viewBox="0 0 1679.5 590.3">
  <!-- Generator: Adobe Illustrator 29.7.1, SVG Export Plug-In . SVG Version: 2.1.1 Build 8)  -->
  <defs>
    <style>
      .st0 {
        fill: #1c1c1b;
      }
    </style>
  </defs>
  <g>
    <path class="st0" d="M572.8,310.3c.5,3.6,1.5,6.2,3,8,2.7,3.2,7.3,4.8,13.8,4.8s7.1-.4,9.5-1.3c4.6-1.6,6.9-4.6,6.9-9s-1.1-4.6-3.4-6c-2.3-1.4-5.9-2.6-10.8-3.6l-8.4-1.8c-8.3-1.8-14-3.8-17-6-5.2-3.6-7.9-9.2-7.9-16.8s2.6-12.7,7.7-17.4c5.1-4.6,12.7-6.9,22.6-6.9s15.4,2.2,21.2,6.5c5.9,4.3,8.9,10.6,9.2,18.9h-15.6c-.3-4.7-2.4-8-6.3-10-2.6-1.3-5.8-2-9.7-2s-7.7.8-10.3,2.5c-2.6,1.7-3.8,4-3.8,7.1s1.3,4.9,3.8,6.2c1.6.9,5.1,2,10.3,3.2l13.6,3.2c6,1.4,10.5,3.3,13.4,5.6,4.6,3.7,7,8.9,7,15.9s-2.7,13-8.2,17.7-13.2,7-23.3,7-18.3-2.3-24.1-6.9c-5.9-4.6-8.8-11-8.8-19.1h15.5,0Z"/>
    <path class="st0" d="M624.7,288v-10.7h8v-16h14.9v16h9.3v10.7h-9.3v30.4c0,2.4.3,3.8.9,4.4s2.4.9,5.5.9.9,0,1.5,0c.5,0,1,0,1.5,0v11.2l-7.1.3c-7.1.2-12-1-14.6-3.7-1.7-1.7-2.5-4.4-2.5-8v-35.4h-8,0Z"/>
    <path class="st0" d="M688,299.3c2.8-.4,4.8-.8,6-1.3,2.2-.9,3.2-2.3,3.2-4.3s-.8-4-2.5-4.9c-1.7-.9-4.1-1.3-7.3-1.3s-6.1.9-7.6,2.6c-1.1,1.3-1.8,3.1-2.1,5.3h-14.5c.3-5,1.7-9.2,4.2-12.4,4-5.1,10.8-7.6,20.5-7.6s11.9,1.2,16.8,3.7c4.9,2.5,7.4,7.2,7.4,14.1v26.4c0,1.8,0,4,.1,6.6.1,2,.4,3.3.9,4,.5.7,1.2,1.3,2.2,1.7v2.2h-16.3c-.5-1.2-.8-2.2-.9-3.3-.2-1-.3-2.2-.4-3.5-2.1,2.2-4.5,4.2-7.2,5.7-3.3,1.9-6.9,2.8-11,2.8s-9.6-1.5-13-4.5-5.1-7.2-5.1-12.6,2.7-12.2,8.2-15.3c3-1.7,7.4-3,13.3-3.7l5.2-.6h0ZM697.2,306.3c-1,.6-1.9,1.1-2.9,1.5-1,.4-2.3.7-4,1l-3.4.6c-3.2.6-5.5,1.2-6.9,2.1-2.4,1.4-3.6,3.5-3.6,6.4s.7,4.4,2.2,5.6c1.4,1.1,3.2,1.7,5.3,1.7,3.3,0,6.3-.9,9.1-2.8,2.8-1.9,4.2-5.4,4.3-10.4v-5.6h0ZM706.6,253.3l-16,15.8h-10.9l10.1-15.8h16.8,0Z"/>
    <path class="st0" d="M717.2,288v-10.7h8v-16h14.9v16h9.3v10.7h-9.3v30.4c0,2.4.3,3.8.9,4.4s2.4.9,5.5.9.9,0,1.5,0c.5,0,1,0,1.5,0v11.2l-7.1.3c-7.1.2-12-1-14.6-3.7-1.7-1.7-2.5-4.4-2.5-8v-35.4h-8,0Z"/>
    <path class="st0" d="M803.5,280.1c3.8,3.1,5.6,8.3,5.6,15.5v38.7h-15.4v-35c0-3-.4-5.3-1.2-7-1.5-3-4.3-4.4-8.4-4.4s-8.5,2.2-10.4,6.5c-1,2.3-1.5,5.2-1.5,8.8v31.1h-15v-57.4h14.6v8.4c1.9-3,3.7-5.1,5.5-6.4,3.1-2.3,7-3.5,11.7-3.5s10.8,1.6,14.5,4.7h0Z"/>
    <path class="st0" d="M846.4,253.3l-16,15.8h-10.9l10.1-15.8h16.8,0ZM820.5,276.8h15.2v57.5h-15.2v-57.5h0Z"/>
    <path class="st0" d="M903.6,255.8c.8,0,1.8.1,3.2.2v12.2c-.8-.1-2.3-.2-4.2-.2-2,0-3.4.4-4.1,1.3-.8.9-1.1,2-1.1,3.1v4.9h9.9v10.6h-9.9v46.4h-14.9v-46.4h-8.4v-10.6h8.2v-3.7c0-6.2,1-10.4,3.1-12.7,2.2-3.4,7.4-5.2,15.8-5.2s1.8,0,2.6,0h0Z"/>
    <path class="st0" d="M960.9,327.2c-4.9,6-12.2,9-22.1,9s-17.2-3-22.1-9-7.3-13.2-7.3-21.6,2.4-15.5,7.3-21.5,12.2-9.1,22.1-9.1,17.2,3,22.1,9.1,7.3,13.3,7.3,21.5-2.4,15.6-7.3,21.6ZM948.9,318.9c2.4-3.1,3.5-7.6,3.5-13.3s-1.2-10.2-3.5-13.3c-2.4-3.1-5.7-4.7-10.1-4.7s-7.8,1.6-10.2,4.7c-2.4,3.1-3.6,7.5-3.6,13.3s1.2,10.2,3.6,13.3,5.8,4.7,10.2,4.7,7.8-1.6,10.1-4.7Z"/>
    <path class="st0" d="M1023,280.1c3.8,3.1,5.6,8.3,5.6,15.5v38.7h-15.4v-35c0-3-.4-5.3-1.2-7-1.5-3-4.3-4.4-8.4-4.4s-8.5,2.2-10.4,6.5c-1,2.3-1.5,5.2-1.5,8.8v31.1h-15v-57.4h14.6v8.4c1.9-3,3.7-5.1,5.5-6.4,3.1-2.3,7-3.5,11.7-3.5s10.8,1.6,14.5,4.7h0Z"/>
    <path class="st0" d="M1071,277.7c2.7,1.5,4.9,3.6,6.6,6.4v-27.4h15.2v77.6h-14.6v-8c-2.1,3.4-4.6,5.9-7.3,7.4s-6.2,2.3-10.2,2.3c-6.7,0-12.4-2.7-17-8.1s-6.9-12.4-6.9-20.9,2.3-17.5,6.8-23.1,10.6-8.4,18.1-8.4,6.6.8,9.3,2.3h0ZM1074.7,318.7c2.2-3.2,3.3-7.3,3.3-12.3s-1.8-12.1-5.3-15.1c-2.2-1.8-4.7-2.7-7.6-2.7-4.4,0-7.6,1.7-9.7,5s-3.1,7.4-3.1,12.4,1,9.6,3.1,12.7c2.1,3.2,5.3,4.8,9.5,4.8s7.5-1.6,9.7-4.7h0Z"/>
    <path class="st0" d="M1135.9,256.8h14.8v41.9l19-21.7h18.7l-20.6,21.4,21.4,35.8h-18.3l-13.9-24.6-6.2,6.5v18.1h-14.8v-77.5h0Z"/>
    <path class="st0" d="M1209,276.8v34.6c0,3.3.4,5.7,1.2,7.4,1.4,2.9,4,4.4,8,4.4s8.6-2.1,10.5-6.2c1-2.2,1.5-5.2,1.5-8.9v-31.3h15.2v57.5h-14.6v-8.1c-.1.2-.5.7-1.1,1.6-.6.9-1.2,1.7-2,2.3-2.3,2.1-4.6,3.6-6.8,4.3-2.2.8-4.8,1.2-7.7,1.2-8.5,0-14.2-3.1-17.1-9.2-1.6-3.4-2.5-8.3-2.5-14.9v-34.6h15.4Z"/>
    <path class="st0" d="M1272.2,334.3h-15v-77.7h15v77.7Z"/>
    <path class="st0" d="M1278.6,288v-10.7h8v-16h14.9v16h9.3v10.7h-9.3v30.4c0,2.4.3,3.8.9,4.4s2.4.9,5.5.9.9,0,1.4,0c.5,0,1,0,1.5,0v11.2l-7.1.3c-7.1.2-12-1-14.6-3.7-1.7-1.7-2.5-4.4-2.5-8v-35.4h-8,0Z"/>
    <path class="st0" d="M1332.8,276.8v34.6c0,3.3.4,5.7,1.2,7.4,1.4,2.9,4,4.4,8,4.4s8.6-2.1,10.5-6.2c1-2.2,1.5-5.2,1.5-8.9v-31.3h15.2v57.5h-14.6v-8.1c-.1.2-.5.7-1.1,1.6-.6.9-1.2,1.7-2,2.3-2.3,2.1-4.6,3.6-6.8,4.3-2.2.8-4.8,1.2-7.7,1.2-8.5,0-14.2-3.1-17.1-9.2-1.6-3.4-2.5-8.3-2.5-14.9v-34.6h15.4Z"/>
    <path class="st0" d="M1412.8,275.4c.2,0,.6,0,1.3,0v15.4c-.9-.1-1.8-.2-2.5-.2-.7,0-1.3,0-1.8,0-6,0-10.1,2-12.2,5.9-1.2,2.2-1.7,5.6-1.7,10.2v27.5h-15.1v-57.5h14.3v10c2.3-3.8,4.3-6.5,6.1-7.9,2.8-2.4,6.5-3.5,11-3.5s.5,0,.7,0Z"/>
    <path class="st0" d="M1425.6,345.3h1.9c1.5.2,2.9.1,4.2,0,1.3-.2,2.5-.6,3.4-1.2.9-.6,1.7-1.8,2.5-3.7.8-1.9,1.1-3.1,1-3.5l-21.1-60h16.7l12.6,42.4,11.9-42.4h16l-19.7,56.5c-3.8,10.9-6.8,17.7-9,20.3-2.2,2.6-6.7,3.9-13.3,3.9s-2.4,0-3.2,0c-.8,0-2,0-3.6-.2v-12h0Z"/>
    <path class="st0" d="M1514.5,264.7c6.3-6.4,14.2-9.6,23.9-9.6s22.4,4.3,28.4,12.9c3.3,4.8,5.1,9.6,5.3,14.5h-16.2c-1-3.7-2.4-6.5-4-8.4-2.9-3.4-7.2-5.1-12.9-5.1s-10.4,2.4-13.7,7.1c-3.3,4.8-5,11.5-5,20.2s1.8,15.2,5.3,19.6c3.5,4.3,8,6.5,13.4,6.5s9.8-1.9,12.7-5.6c1.6-2,3-5,4-9h16.1c-1.4,8.5-4.9,15.4-10.7,20.7-5.7,5.3-13.1,8-22,8s-19.8-3.6-26.1-10.8c-6.3-7.2-9.5-17.1-9.5-29.6s3.6-24,10.8-31.4h0ZM1531.9,250.8l-12.4-15.8h12.2l6.9,8.9,6.9-8.9h12.2l-12.3,15.8h-13.5,0Z"/>
    <path class="st0" d="M1631.9,258.5c2.9,1.2,5.3,3,7.3,5.4,1.6,2,2.9,4.1,3.9,6.5,1,2.4,1.4,5.1,1.4,8.2s-.9,7.3-2.8,10.9c-1.9,3.6-4.9,6.1-9.2,7.6,3.6,1.4,6.1,3.5,7.6,6.1,1.5,2.7,2.2,6.7,2.2,12.2v5.2c0,3.6.1,6,.4,7.2.4,2,1.4,3.5,3,4.4v2h-17.9c-.5-1.7-.8-3.1-1.1-4.2-.4-2.2-.7-4.4-.7-6.7v-7.2c-.2-5-1-8.3-2.7-9.9-1.6-1.7-4.7-2.5-9.3-2.5h-15.9v30.5h-15.9v-77.7h37.2c5.3.1,9.4.8,12.3,2h0ZM1598.4,270v20.9h17.5c3.5,0,6.1-.4,7.8-1.3,3.1-1.5,4.6-4.4,4.6-8.8s-1.5-7.9-4.5-9.5c-1.7-.9-4.2-1.4-7.5-1.4h-17.9,0Z"/>
  </g>
  <g>
    <path class="st0" d="M162,174c-.8,0-1.6.6-1.6,2s.3,2.2,1.2,2.2,1.4-.9,1.4-1.4c0-1.4.6-1.1.6-2.2s-.8-.7-1.6-.7Z"/>
    <path class="st0" d="M261.3,89.7c-11.2,1.5-15.9,0-22.7-4.3l-1-.6-.7,1c-3.2,4.7-9.1,7.7-9.2,7.7-.6.3-.9,1.1-.6,1.7.2.4.7.7,1.1.7s.4,0,.6-.1c.1,0,1.3-.6,2.8-1.7.1,1.7.9,3.2,2.3,4.5,2,1.8,4.8,2.9,7.5,2.9s2.7-.3,4-.8c1.8-.8,4.6-2.9,4.8-8,3.1.4,6.8.3,11.4-.4.7,0,1.2-.7,1.1-1.4,0-.7-.7-1.2-1.4-1.1h0ZM244.4,98.3c-2.6,1.2-6.4.5-8.7-1.6-1-1-2-2.5-1.3-4.7,1.3-1.1,2.7-2.4,3.9-3.9,3.2,1.9,6.1,3.3,9.5,4,0,3-1.2,5.2-3.3,6.2h0Z"/>
    <path class="st0" d="M167,178.4c0-.6-.4-.9-1.1-.9s-2.6.3-2.6,3,0,1.6,1.5,1.6,1.1-.6,1.1-1-.2-.4-.2-.8c0-1,1.3-1.3,1.3-1.8h0Z"/>
    <path class="st0" d="M156.2,168.1c-.6,0-1.8.6-1.8,1.4s.3.6,1,.6,1.6-1.2,1.6-1.5-.2-.5-.9-.5h0Z"/>
    <path class="st0" d="M317.8,464.6c-.9,0-1.5.7-1.5,1.1s.7,1.3,1.2,2.4c.7,1.3,1.3,2.7,1.7,2.7.7,0,1.1-1,1.1-1.5s-1.1-4.7-2.6-4.7h0Z"/>
    <path class="st0" d="M316.6,468.8c-1.1,0-1.4,1.4-1.4,1.6,0,.7,1.8,3.2,2.3,3.2s1.2-.5,1.2-1.2-1-3.6-2.1-3.6Z"/>
    <path class="st0" d="M177.4,198.1c.9,0,1.1.7,2.3.7s1.5-1.2,1.5-1.6-1.2-2-3.2-2-1.6,1.1-3.9,1.1-4.2-2.7-4.2-5.9.5-2.2.5-4-.2-4.2-2.6-4.2-1.4.4-1.4,1.3.9,1.2.9,3.1-.5,2.8-.5,4.7.8,7.7,6.5,7.7,3.3-.9,4.2-.9h0Z"/>
    <path class="st0" d="M241.1,97.1c3.4,0,5.4-2.2,5.4-3s0-.9-.5-.9-2,1.4-4,1.4-1.1,0-1.1-.7.5-1.2.5-1.8-.5-2-2.1-2-2,2-2,3,0,4,3.8,4h0Z"/>
    <path class="st0" d="M315.3,473.2c-.5,0-1.3,2.2-1.3,3.2s.3,1.6,1.2,1.6,1.4-.9,1.4-1.2.3-3.6-1.3-3.6Z"/>
    <path class="st0" d="M209.9,110c-1.3,0-1.6,1.6-1.6,2s0,.8,1.2.8,2.6-1,2.6-1.9-1.5-1-2.2-1h0Z"/>
    <path class="st0" d="M168.2,428.2c-.4,0-2.1.6-2.1,1.9s0,1.7,1.2,1.7,1.6-2.5,1.6-2.9-.3-.6-.7-.6h0Z"/>
    <path class="st0" d="M216.1,109c-1.2,0-1.2,1.3-1.2,1.9s1.5.7,2.3.7,1.1-.9,1.1-1.6-1.5-1-2.2-1Z"/>
    <path class="st0" d="M175.6,424.6c-.4,0-1.7-.4-1.7,5s.3.9.8.9,1.8.1,1.8-3.7-.5-2.2-.9-2.2h0Z"/>
    <path class="st0" d="M164.3,430.1c-.3,0-2.7.5-2.7,2.3s.3.6.9.6,2.8-1.6,2.8-2.3-.7-.6-1.1-.6Z"/>
    <path class="st0" d="M172,426.3c-1.2,0-2.4.2-2.4,3.6s-.1,1.6.8,1.6c2.2,0,2.7-4,2.7-4.6s-.4-.6-1-.6Z"/>
    <path class="st0" d="M196.7,414.1c0-.5-.7-.8-1.6-.8s-2.6,1.3-2.6,3.7,1.2,3.3,1.2,6-1.9,2.2-2.7,2.2c-4.2,0-2.4-1.9-5.3-1.9s-8.3,1.5-8.3,3.5.7.7,1.6.7,2.2-1.2,4.3-1.2c4.3,0,2.6,2,7.1,2s6.9-4.5,6.9-6.5-1.5-4-1.5-5.3.9-2,.9-2.4h0Z"/>
    <path class="st0" d="M319.2,461.2c-.6,0-1.4,1.2-1.4,1.8s.9.8,1.6,1.6c.8.9,1.5,2,1.8,2,.5,0,1.5-.6,1.5-1.5,0-1.6-2.8-4-3.5-4h0Z"/>
    <path class="st0" d="M212.5,105.3c-1,0-1.2,1.8-1.2,2.2s0,.7,1.2.7,1.4-1.2,1.4-1.8-.8-1.1-1.4-1.1h0Z"/>
    <path class="st0" d="M297.1,105.1c.7,0,5.4-.5,5.4-5.8s-.5-.8-.8-.8c-1.5,0-1.1,2.3-2.3,2.3s-2.5-1-2.5-5.8,2.4-7,3.2-7c1.3,0,.3,3.7,2,3.7s1-1,1-1.6.1-6.4-2-6.4-7.5,1.9-7.5,6.5.4,2.9.4,4.6-.8,3.6-.8,5.7,2.7,4.5,3.8,4.5h0Z"/>
    <path class="st0" d="M158.2,171.2c-1.1,0-1.5.5-1.5,1.8s.5,1,.7,1,2.3-.2,2.3-1.8-.9-1-1.5-1Z"/>
    <path class="st0" d="M172.2,265.6c1.2,0,1.4-1.1,1.4-1.4s-1-1-1.6-1-.6-1-1.2-1-1.6,1.4-1.6,2,1.1,1.4,3.1,1.4h0Z"/>
    <path class="st0" d="M275.9,309.5c.6,0,1.6-.6,1.6-1.8s-.4-1.1-.9-1.1-1.4.6-1.4,1.1.1,1.8.7,1.8Z"/>
    <path class="st0" d="M318.2,442.5c0,.4.6,4.4,6.4,4.4s4.7,3,4.7,4.2c0,4.5-1.3,3.4-3.8,3.4-4.9,0-5.7,6.5-4.3,6.5,2.3,0,2.1-3.1,4.6-3.1s6.5-2.4,6.5-6.6-1.9-7.5-7.5-7.5-2.5-3.5-4.5-3.5-2.1,1.8-2.1,2.2h0Z"/>
    <path class="st0" d="M273.9,306.6c.8,0,1.5-.6,1.5-1.4s-.2-1-1.3-1-1.3.5-1.3,1,.3,1.4,1.1,1.4h0Z"/>
    <path class="st0" d="M180.2,261.7c3.6,0,1.9-.9,3.9-.9s1.4-.7,3.3-.7,1.1.8,5.2.8,7-1.1,7-4.2-.4-4.6-.4-6.4.4-1.8.4-2.5-.9-.6-1.4-.6-2.2,0-2.2,2.7.5,3.7.5,5.2-.9,3.7-3.3,3.7-2.2-1.5-5.4-1.5c-5.7,0-5,2.8-7.4,2.8s-1.9.1-1.9.7.7.9,1.6.9h0Z"/>
    <path class="st0" d="M28.7,20.8v296c0,100.8,49.4,164.1,90.9,199.4,46.9,40,104.1,60.9,136.5,60.9s89.6-20.9,136.5-60.9c41.5-35.4,90.9-98.7,90.9-199.4V20.8H28.7ZM476.4,316.8c0,98.1-48.1,159.7-88.4,194.1-45.6,38.9-100.9,59.3-131.9,59.3s-86.3-20.4-131.9-59.3c-40.3-34.4-88.4-96-88.4-194.1V27.8h440.7v289Z"/>
    <path class="st0" d="M167.3,268.1c1.1,0,1.8-1.1,1.8-1.4s-.1-.7-.6-.7-.6-.1-.6-.6.1-.8-.4-.8-1.6.5-1.6,1.9.5,1.7,1.5,1.7Z"/>
    <path class="st0" d="M43.3,303.5l2.1-2c2.2-2.1,4.9-3.1,8.4-3.1s1.5,0,2.2,0h.7c.7,7.4,8,8.7,11.5,9.3.7.1,1.3.2,1.6.4h0c-.1,2.2,1.6,6.4,3.1,8.4h0c-.7,5.5,1.6,10.4,3.9,13.1.4.5.9,1,1.3,1.3l1.9,1.5.6-2.3c1.4-5.9,3.8-6.3,7.3-6.3s2.6,0,3.3,0c2.3,0,5.3-.3,8.5-2.3,5.7-3.7,8.5-8.4,9.2-15.7h0c3.5-.1,7.6-1.1,10.6-2.6h0c2.8,4.1,6.4,6.5,9.8,6.8h0c1.4,1.5-1.1,9.4-1.1,9.4h2c5.3,0,10.4-6.1,12.5-10.3h0c6.6-3.1,6.8-8.7,6.2-13.2,0-.2,0-.7,0-.9h0c.7-.3,4.5-1.5,8.9-2.6,2.8-.6,4.6,0,5.4,1.6,1.5,3.9-1.7,7.8-2.3,9.3,8.1-5.4,10.2-8.9,10.2-8.9,0,0,1.9.2,2.4.7,0,8.6,4.5,15.2,7.5,17.6l2.6,2v-3.3c-.3-4.9,0-11.2,1-13.8h0c3-1.3,8.6-5.2,10.5-7.2,2.9,6.2,6.7,9.9,11.1,11.1,0,0,0,0,2.9.8-7.5-15.6,1.4-17.6,3-18.7,4.6,4.8,35.6,24.9,46.8,35.8-4.6-.8-8.1-.9-11.8.4,6.8,5.1,19.8,18,20.2,22.1-10.6-1.7-16.3-1.8-25.4-1.8s-25.9,1.6-38.4,4c-.4,0-.9.1-1.4.1-4.6,0-11.2-3.9-12.2-7.7-.9-3.2,5.1-7.2,5.1-7.2,0,0-11.4-2.7-18.6,3.1-3.8,3.1-6,8-5.9,13.6h0c-2-.3-4-.5-5.9-.5-13.8,0-26.9,7.9-36,21.8l-2.3,3.5,4-1.3c6.2-2,11.9-2.9,17.5-2.9s11,1,16.4,2.1c4.4.9,9,1.7,14.2,2.1h0c-7.3,13.4-8.5,21.1-9.3,26.8-.6,4.3-1.1,7.2-4,10.2-3.1,3.1-10,5.3-19.4,5.3s-10.9-1.1-11.7-1.3h0c0-16.9-9.4-19.9-12.3-20.4h0c-3.1-4.7-9.5-10.6-16.9-10.3,3.3,8.7,1.8,12.3,1.9,13.5h0c-2,1.9-5.4,6.2-6.1,8.1h0c-1.3-.1-11.5-1.5-13.6,4.3-6.1,1-13.9,2.6-16.6,9.6,9.6.7,9.4,1.5,10.6,3.6h0c-.3,16.7,12.2,17.7,13.6,17.7-1.7,3.2-1.7,7.8-.9,10.9-1.5,5.5-1.2,10.3-.5,13l.8,2.8,1.8-2.2c1.1-1.3,3.3-3.9,5.3-3.9s.4,0,.7.1c3.9,2.6,7.2,3.9,10.1,3.9,4.4,0,7.2-2.9,9.9-5.6,2.6-2.7,5.3-5.4,9.3-5.4s.8,0,1.1,0h0c.6,4.8,4.5,8.9,6.8,10.4h0c1.6,5.9,0,7.9-1.2,9.6-.1.2-.3.4-.4.5l-2.2,3.2,3.8-.9c5.3-1.2,10.1-4.3,13.5-8.8,7,0,9.5-10,9.5-12.6,1.1,0,2.4-.1,4-.4,4.5,8.3,10.9,13.4,18.2,14.4l3.3.5-1.9-2.8c-3.3-5-4.4-7.8-4.4-8.8l1,.6c2.8,1.7,5.7,3.4,9.3,3.4s3-.3,4.5-.9l2.3-.9-1.9-1.6c-5.6-4.7-7.1-7.4-7.1-8.2l5.9.2c4.6.2,7.6.3,9.7.3,3.5,0,5-.2,5.6-2.3h0c.6.2,1.4.3,2.4.3,3,0,7-.8,10.3-2.1,0,0,1.8-.7,2.2-.9-14.1-9.4-10.1-21.4-7.5-31.9,1-4.1,2.3-8.3,2.4-12.4,4.8-.3,29.9-1.8,48.3-8.2-3.4,24.1-9.4,37.6-17.3,39.2-.5.1-1.1.2-1.6.2-4.7,0-9.1-4.7-11.2-6.9-2,22.6,16.5,20.1,18.8,20.1-8.8,20.3-.8,35.2,1.9,39.2,3.1,4.6,6.4,6.6,7,7-1.5-16.4,2.7-21.7,7.9-29.3,2.6-3.8,5.6-8.1,8.5-14.1,1,2.5,3.1,4.7,5.4,7,3.3,3.3,6.7,6.8,6.7,11.6,0,7.2-20.1,33.3-25.7,33.3s-1.3-.1-2.1-.2c-1.7-.2-4-.5-6.5-.5-5.4,0-9,1.6-10.7,4.7-12.1,1.3-16.2,5.6-18.5,12.8,9.7-2.7,11.4.2,14.5,2.9-.3,2.6.1,4.8,3,8.1h0c-5.4,8.1-4.8,11.9-1.8,15.7h0c-4.2,11.8,2,19.4,2,19.4,0,0,2.4-4.2,9.1-8.7h0c2.8,2.2,7.6,2.6,12.5.9,5-1.7,9.2-5,10-8.2h0c.7.3,1.7,1,4.5,3.3h0c1.9,10.2,9.3,10.3,9.3,10.3,0,0-.2-2.9,2.8-6.9.8-1.1,1.7-2.4,2.4-3.9,11.1-2.7,14.1-9.1,14.7-13.9.6-5.7-2-10.9-3.6-11.7h0c.4-.9,3.3-4.3,3.3-4.3h0c2.7.8,5.4,1.2,7.8,1.2s5.6-.8,6.7-1.5c.2-.1.7,0,.8.1,1.6,3.2,3.6,4.8,3.6,4.8l1.1-1.2c5-5.5,4-10.3,2.4-14-.8-1.9-.5-6.7-.5-6.7l-1.2-.3c-.5-.1-1.2-.3-1.2-3h0c9.6-2.4,13.5-7.4,13.5-7.4,0,0-2-1.1-2.1-1.5h0s0,0,0,0c5.5-2.8,9.7-8.9,9.7-8.9l-2.7-.3c-1.7-.2-3-.7-4.1-1.1-.9-.3-1.6-.6-2.5-.7,2.1-1,7-4.7,8.7-9.9,8.6-2.8,9.9-12.1,9.9-12.1l-2.9,1.3c-1.5.6-3,1.1-3.9.7-.4-.2-.7-.5-.8-1,2.1-1.5,4.4-6.8,4.7-8.4,6.3-6.1,6.5-12.5,6.5-12.5,0,0-5.2.9-8.9.9-9.3,0-13.1-4.1-18.5-9.7-3.8-4-8-8.5-15.3-12.8h0c1.7-3.6,3.1-42.5,1.6-49.2,4.7,8.6,15.5,17.2,24.9,24.7,18.9,15,38.4,30.6,34.3,63.4l-.5,3.8,2.9-2.5c21.7-18.3,12.7-41.9,12.6-42.2h0c5.2,1.6,10.6,2.3,16.1,2.3,15,0,27.6-5.9,31.8-11.5l2-2.6-3.3.2c-.7,0-1.5,0-2.2,0-10.9,0-22.5-4.7-28.2-6.9l-.6-.2h0c13.6-3,20.9-17.7,22.4-26.8l.7-4.1-3.2,2.7c-6.4,5.5-15.3,8.9-21.8,11.4-3.3,1.3-6.2,2.4-8.1,3.4,4.1-12.1,4-15.9,4-19.9v-1.5h0c5.4-1,16.8-14.3,18.2-22.7,8.6-4.7,14.4-15,15.6-22.3h0c8.1-7.8,9.7-15.8,10.2-21.8h0c6.1-5.8,8.2-22.4,6.8-26.1,7.5-12.4,7.1-16,6.4-23.1v-1.3c-.1,0-.1,0-.1,0,4.5-17.2,1.9-21.5.3-24.4,1.7-4.5,2.1-12.3-.3-17.8l-1.1-2.4-1.5,2.1c-3.4,4.7-10.8,9.4-16.8,13.3-2.3,1.5-4.4,2.8-5.8,3.9-.3-19-23.2-54.4-29.8-60.4,4.7-2.5,11.8-2.7,15.4-.5,4.2,2.5,5.5,7.4,6.1,11.9l.3,2.3,2-1.3c6.2-4.1,9.6-8.8,10.3-13.8.6-5.4-2.2-9.8-4-11.5,10.8-8.9,10.8-16.2,10.8-22.6v-.5h0c5.5-11.9,3.1-22.4,2.6-24.4,3.7-13.1-.2-21-2.9-26.2l-.5-.9h0c1-10.4-3.3-18.5-7.9-21.1l-2-1.1-.2,2.3c-.8,7.5-4.6,13.9-8.2,20.1-2.9,5-5.7,9.8-7,15h0c-4.8-3.2-9.4-4.8-13.8-4.8s-5.4.7-7.7,2c-4,2.3-6.9,6.5-7.6,11.1l-.4,2.7,2.5-1.1c3.5-1.5,6.7-1.4,9.3.5,4.1,2.9,5.9,9.5,4.4,16.4-2.3,10.7-13.3,21.6-19.7,27.1-14.4-12.5-17.9-33.2-14.3-39.2,1.8-2.9,4.9-3.3,6.7-3.3s2.3.2,3.5.5l2.8.8-.9-2.8c-2.3-6.7-6.3-10.7-11.7-11.5-.7-.1-1.4-.2-2.1-.2-6.5,0-12.6,4.4-15.1,8.8-.6-2.5-1.4-5-2.3-7.7-2.8-9-6.4-20.2-3.9-33.9l.6-3.2-2.8,1.7c-5.9,3.5-9.3,13.8-10.3,16.8-11.3,11.6-10.8,24.1-8.8,28.1h0c-7.1,10.1-1.8,22.5,0,26.1h0c-1.4,11.7,1,14.8,4,18.8.7.9,1.4,1.9,2.2,3.1-4,4.2-5.7,8.9-4.9,13.9.9,5.1,4.5,10.1,9.7,13.4l2.4,1.5v-2.8c-.1-5.5,1.5-8.9,4.8-10.3,1.1-.5,2.4-.7,3.8-.7,6.6,0,14.4,4.8,15.7,6.3,0,0-.1.1-.2.2-.3.3-.5.6-.7.9h0c-14.7,18.9-26.5,42.7-27,54.5-10.5-5-16.4-8.6-20.1-12.5l-1.6-1.7-.9,2.1c-4.3,10.5-2.7,15.6-1,21,.2.7.5,1.5.7,2.3h0c-3.1,9.4-1.7,14.8,2.3,21.8-3.5,10.6-.7,14.1,4.8,21h0c-1.1,11.4,1,18.9,7.1,24.9h0c.9,11.6,4.3,16.7,11.1,23.2h0c2.4,8.6,8.3,15.1,17.4,19.4h0c2.6,11.7,11.4,16.4,17.9,19.9h0c1.4,5.9-1.2,11.6-4.2,14.4-2.1,2-4.6,2.7-6.7,2-3.9-1.3-12-7.7-20.5-20.3-13.3-19.8-24.3-42-32.7-60.9-6.1-13.6-9.9-25.4-15.5-34.3h.6c1.9-.3,4.1-.5,7-2.1l2.2-1.2-2.1-1.4c-5.7-3.8-9.5-12.6-11.8-17.8l-.8-1.7c10.4-11,9.8-26.6,9.5-36.9,0-1.4-.3-2.7-.3-3.9,4.3,3.2,12.9,5.9,19,5.9s3.7-.3,4.9-.9c.5-.2.8-.5,1.1-.8l2.5-2.4-3.4-.2c-5.9-.4-8.1-7.8-10.1-14.5-1.2-4.1-2.9-7.6-4-10.6,2.2-3.8,2.7-10.9.4-18.6,3.8-10.6,1.4-15.8-1.7-20.7,9.9-4.9,9.8-16,9.3-20.7l-.4-3.9-2.3,3.1c-.9,1.2-2,2.1-3.3,2.6-1.1.5-2.4.7-3.8.7-3.8,0-7.8-1.8-10.5-3l-1-.5c8.9-8.2,8.1-15.5,6.1-24.1l-.3-1.5c-1-4.4-1.6-7.1-3.5-8.2-.6-.3-1.4-.5-2.3-.5-2.4,0-9.1,2.1-11.4,3.5.6-17.7,7.3-34.5,8.9-37l.6-.9c.2-.3.4-.6.6-.9l1.3-2-2.4-.3c-.5,0-1,0-1.7,0-4.8,0-9.7,4.9-12,7.3l-.2.2h0c-5.7,0-6.9,1-7.6,2-.3.4-.5.6-1.1.6-1.3,0-1.5-.4-1.7-1-.5-1.3-1.6-2.2-5.4-2.7-1.6-.2-2.5-2-3.7-4.6-1.5-3.3-3.2-7.1-7.9-7.1s-7.2,4.6-8.9,7.9c-.9,1.7-1.8,3.5-2.4,3.5-3.5.4-5.2.6-5.7,2.6-.2.7-.3,1.2-2.1,1.2s-1.5-.4-1.7-.9v-.4c-.1,0-.5-.3-.5-.3-.4-.3-1.3-.7-4.2-.7s-.9-.5-1.6-1.5c-.8-1.1-1.9-2.6-3.8-3.6-3.5-1.8-6.2-2-7-2s-1.9,0-2.4.9c-.6.8-.4,2,.7,3.7,6.4,10.6,8.1,26.9,8.8,33.1v.2c.1.8.2,1.4.2,1.8-6,2.1-7.3,3.8-8.9,6.5-.5.9-1.1,1.8-2,2.8-4.8,1.9-11,5.3-15.3,8.5l-.3.2c-2.4,1.7-4.1,3-4.3,4.8-.1,1.4.8,3,2.8,5.1,0,4.2,1.1,7.4,3.1,9.4,1.8,1.8,4.3,2.6,7.7,2.6s.9,0,1.2,0h.6s0,0,0,0c.4,1.1,3.8,6,5.4,7.4h0,0c-1.1.2-4.2.6-8.5.6-6.1,0-16.9-.9-21.5-6.8-2.1-2.7-2.6-6-1.6-10l.9-3.5-3.1,1.9c-5.6,3.4-8.5,8.6-7.9,14.7.6,7.3,6.1,13.7,13.2,15.2,3.1.7,6.7,1,11.1,1s7.4-.3,9.8-.4l2.1-.2c2-.2,3.3-.3,4.1-.3s.8,0,.9.1c-2.2,2.8-3.4,5.6-4.7,8.6-1.2,2.8-2.4,5.7-4.4,8.3l-1.4,1.8,2.3.5c.5.1,1.1.2,1.7.2,1.8,0,3.6-.5,5.6-1.1,1.8-.5,3.6-1,5.3-1,6.6,0,2.5,5.2.2,7.7-3.3,3.6-6,5.9-8.4,6.9-2,.9-3.9,1.4-5.4,1.4s-2.2-.2-3-1.1c-1.2-1.3-1-3.6.4-6.8l1.3-2.9-3.1.8c-3.5,1-7.6,2.9-10.2,5.2-7.4-10.8-15.4-18.3-23-25.3-7-6.5-15-13.9-26.7-27.7-9.2-10.9-6.7-15.7-4.3-20.3,2.2-4.1,4.4-8.4-1.1-16.9h0c2.7-9.8,2.5-15.1-.7-17.7l-1.7-1.4-.6,2.2c-.8,2.8-3.4,4.9-5.3,6.4h-.1c-.6.6-1.1,1-1.5,1.5-2-1-4.1-1.5-6.4-1.5-3.3,0-5.9,1.1-6.9,1.7h0c-3.6-8.4-9.6-10.1-13.9-9.5-5.7-6-13.2-9.4-21.1-5.9.5.9,5.7,9,6.2,9.7-8,4.8-7.6,14.5-7.2,20.8-3.5,1.4-6.5,3.7-7.4,5.5-3.7.3-12.6,3.4-12.6,7.2s1.8,3.1,4,4.1c1.6.8,3.3,1.6,4.5,3.1,0,5.9,1.7,10.2,5.1,13,2.8,2.2,6.6,3.4,11.3,3.4s5.6-.5,6.8-.7h0c1.6,1.7,4.5,4.3,6.7,6-8,6.4-6.5,12.4-6,14.6h0c-2.7,4.3-5.5,5.1-8.1,5.6l-2.5.4,1.6,2c3.6,4.6,9.3,5.3,12.5,5.3s2.8-.2,2.8-.2h0c2.4,1.8,4.8,2.6,7.1,2.6,4.4,0,7.6-3.2,9.9-5.9.2-.3.4-.5.6-.7h0c4.4,4.1,6.9,8.5,6.6,11.7-.1,1.2-.6,2.1-1.4,2.7-.7.5-1.4.7-2.1.7-1.3,0-2.5-1-3.4-1.7l-2.3-1.9-.5,2.5c-1.3,6.5,3.9,9.9,9.8,13h0c-1.9,2.2-6.5,10.6-5.7,16.6l.3,2.6,2.1-1.6c2.6-2,4.7-3,6.3-3s3.2,1.2,5.6,3.8c2.6,2.9,6.2,6.8,13.3,9.9v.6c-.8,3-2.7,10.8-1.7,15.3l.6,2.9,2-2.3c3.5-4,9.7-5,13.1-5.2-5,4.7-3.3,17.3-2.1,21.4h0c-5.1,2.9-10.3,6.2-15.4,9.4-14.3,9-27.8,17.5-37,17.5s-9.5-2.3-11.4-4.8c-1.7-2.2-3.5-4.5-9.6-5.3h0c-1.2-2.3-4.9-5.1-9.8-6.2-3-.7-6-.5-8.3.5l-2.1.9,1.7,1.6c1.3,1.2,1.9,2.4,2.5,3.6.4.9.8,1.7,1.5,2.6h0c-4.7,2.1-7.1,6.3-7.9,9.5-.6,2.7-.3,5.2,1,6.8-3.3,2.3-7.4,5.7-7.7,9.2h0c-10.8,8.9-12.5,13.6-11.8,18.7l.4,2.9h0ZM86.1,316.6c-.3,5.1-5.4,4.1-7.7,10.3-1.6-2.3-3-5.9-2.5-10,.5-4,3.1-5.6,5.4-5.7,1.9,0,5,1,4.8,5.4h0ZM132,316.3c.6-2.3,1.2-4.8.1-7-1.1-2.2-1.3-6.3.8-7.6.9-.5,2.8-1.1,3.7-.4,5.4,4.4.6,12.8-4.7,15.1ZM116.6,400.4c-.8,1-3.2,1.4-4.7.5-4.7-2.7-.6-9.4-3.2-16.3,8.3,3.7,12.2,10.4,7.9,15.8h0ZM75.5,413.9c12.5-7.5,17.4-1.3,17.7.8.3,1.7-.7,3.7-2.4,4.4-6.1,2.3-7.5-5.2-15.3-5.2ZM100.1,455.4c-1.7.2-3.3,1.3-4.7,2.6-.7-12,6.6-13.9,9.2-12.9,1.9.7,3.1,2.5,3,4.4-.2,2.7-2.9,4.9-7.5,5.9h0ZM141.9,470c2.1-5.4-2.1-10.7,2.1-13.3,1.5-.9,3.4-1.1,4.7,0,1.7,1.4,3.5,8.5-6.8,13.3ZM220,396.2h-2.7c0,.1-.1,2.9-.1,2.9-.1,3.8-1.4,7.9-2.3,11.8-2.4,9.8-6.4,23.2,4.6,31.5-2.7.8-5,1.1-6.6,1.1-4.2,0-9.6-9-12-9s-.8.3-.8.7c0,.4,5.1,8,7.4,9.9-.3.2-1.2.5-2.6.5-9.8,0-13-7.9-14.8-7.9s-1.4.6-1.2.9c.7,2.1,3.6,5.2,5.2,6.6-1.9,0-3.4-.1-3.8-.1-4.4,0-4.5-6.6-7.8-8.6-.4-.3-1.5-.1-1.5.3,0,.5,4.1,14.6,11.3,19.8-.3,0-.5,0-.8,0-8.2,0-17-15-17.4-15.1s-1,.6-1.1.9c0,.3,2.6,10.9,8,20.4-10.5-4.3-14.6-16.6-14.9-16.7-.3-.1-2.2.5-2.3.9-.1.5.7,2.4.7,2.4-1.4.3-1.6.3-2.5.3s-2.4-2.8-3-2.8-2,1.2-1.7,1.6c3.1,4.4,0,13.2-4.4,13.7.9-4.8-1.1-7.1-2.2-8-2.3-1.8-5.7-1.8-8.3,0-1.4,1-2.3,2.4-2.8,4-6-5.3-3.2-10.4-2.9-11.6.4-1.4-.9-2.4-1.5-1.3-1.6,3.1-3,2.9-4.2,2.9-2.8,0-5.2,1-7.1,2.4-.4.3,0-4.2-1.5-4.5-.3,0-1.8.6-1.5,1.7.9,3.9-.5,5.9-1.3,6.7-2.6,2.6-4.6,4.7-7.8,4.7-1.9,0-4.2-.8-6.8-2.3,4.8-2.3,5.7-5.7,5.8-7.3.2-3.2-1.8-6.3-5-7.5-3.2-1.2-6.7,0-9.7,2.8-.1-2.1,2-10.7,8.4-10.7s4.6,2.1,6,2.1,1.2-1.1-.6-2.7c2.3-.6,7.3-2.2,11.8-3.7,4.3-1.3,8.2-2.2,8.2-3.6s-4.1-1-9.1.3c-1.9.5-3.6,1.3-5.7,1.9-3.5,1-6.9,1.7-10.7,1.7s1.2-3.8-1-3.8-3.4,8-8.8,8-10.4-1.4-10.7-13.3c1.6.8,3.2,1.3,4.7,1.3s2.5-.3,3.6-.9c2.8-1.4,4.5-4.5,4.1-7.5-.2-1.5-1.3-4.9-6.6-6.4.4-.8,5.4-4.6,10.8-.6,1.7,1.2,2.8,3.2,4.1,6.3.4.9,1.8-.7,1.6-2.4,1.2,1,5,2.9,18.1,3.7.9,0,1.6-.2,1.4-1.5-.2-1-6.5-1.9-8.3-2.7-.2-.1.9-1.8.9-2.5s-1.3-1.4-1.5-.8c-1.8,6.4-11.8-1.3-12.5-2.4-1.4-2.1,1-4.8,2.7-6.7.8,3,2.6,4.5,3.6,5.1,1.1.6,2.3.9,3.5.9s3.3-.6,4.7-1.7c2.2-1.9,3.2-4.8,2.7-8.3,1.8.4,5.5,2,7.7,7.1.4,1,1.2,3.8-2.5,4.8-.2,2.6,4.2-2.6,4.2,5.4v2.3l2.3.6c1.2.3,6.4,1.4,12.4,1.4s16.8-1.4,21.5-6.2c3.7-3.7,4.2-7.3,4.9-11.9.8-5.4,2.5-14.6,8.7-24.2,3.6-5.5,21.4-5.8,21.4-9.4s-17.1,1.8-25.1,1.8-18.4-2.6-29.2-2.6-9.4.6-14.3,1.9c2.7-3.6,4.6-5.4,7.2-7.6,2.1-1.7,6.7-2,11.5-2s8.5.8,11.2,1.2c3.2.5,6,.7,8.6.7s1.6,0,2.3-.1c.5,0,.9-.4.9-.9,0-.5-.6-.7-1.1-.6-2.8.4-6.3-.4-10.4-1-5-.8-10.9-1.7-17.7-1.1,5.7-3.5,12-5.4,18.6-5.4s3.6.1,5.4.4l3.5.6s-1.3-11.4,5.9-15.6c-.8,1.7,2.1,14,5.2,10.6-5.3-12.3.8-12.8,3.2-12.8-1.4,2.2-1.1,4.3-.8,5.6,1.6,5.4,9.3,9.9,15.1,9.9s1.3,0,1.9-.2c12.3-2.3,25.4-3.9,37.9-3.9s17,1.4,24.7,2.5c-7.5,21.5,7.5,25.1,7.5,25.1,0,0-1.3,4.2-2,6.5-3,2.4-15.5,9.9-35.3,9.9s-1.1.5-1.1,1.1.5,1.1,1.1,1.1c18.6,0,29-5,34.2-8-1.2,3.9-1.7,5.9-1.7,5.9-18.1,6.2-44.1,8.5-48.9,8.8ZM245.9,514.1c-1.7-1.7-4.6-3.6-9.5-3.1,6.9-6.8,15.8-6.6,16.5-3,.6,2.8-4.7,8.4-7,6ZM256.1,549.7c-2.9,2.2-4.3,3.2-6.9,5.8-1.4-3.6-1.1-9,.2-12.1,1.2-2.8,4.4-4.6,7.1-4.2,2,.4,3.6,1.8,3.9,3.6.5,2.3-1.5,4.6-4.4,6.8h0ZM291.7,554.8c-1.3-.8-3.7-4.3-3.9-7.6-.2-3.6.3-6.4,2.5-7.5,1.7-.9,4.6-.5,5.3.5,4.1,5.9-1.7,8.8-3.9,14.6ZM333.1,508.8c1.1,2.6,1.9,5.5-.6,9.2-2.4-5.2-7.4-6.3-8.4-8.7-.6-1.4-.2-3,.8-3.8,1.6-1.3,6.8,0,8.2,3.3h0ZM356.9,152.5c-1.8,0-3.5.3-5,.9-3.8,1.6-6,5.1-6.5,10.2-3.3-2.8-5.6-6.3-6.2-9.8-.3-1.8-.1-7.8,3.8-9.7,4.4-2.1,12.7,1.8,12.7-.7s-8.6,0-14.4-7.9c-2.8-3.8-4.2-6.7-3.8-13.9,2.2,2.5,13.2,8.2,13.7,8.2,1.1,0,2-1.8,1.6-2-6.7-3.4-23.5-12-17-31,0,2.4,13,20,14.6,20s.8-1.5.8-1.5c-3.1-4.3-23-25.5-9.1-44.6.8,6.7.8,13.8,2.6,20.1,1,3.5,6.1,11.3,6.6,11.3s1.3-1,1-1.4c-9.2-11-8.7-37,.2-48.1-1.3,12.5,2,22.8,4.6,31.2.8,2.6,1.6,5.2,2.2,7.5.6,2.3,1.9,11.8,3.2,15.4,0,.3,1,0,1-.5-2-17.5,8.5-21.4,13.9-21.4s1.1,0,1.6.1c3.6.5,6.4,2.9,8.3,7-.5,0-1,0-1.5,0-4,0-7.4,1.7-9.2,4.8-4.7,7.7-.4,29.5,14.7,42.8-4.4,4.6-12.5,14.2-17,19.7-2.5-2.4-10.7-6.9-17.6-6.9h0ZM350.5,320c8.9,2.2,10.1,5.4,11,5.4s1.9-.5,1.4-1.3c-3.3-6.7-11.3-5.3-17.9-11.1-1.6-1.4-5.2-7.2-5.8-15.7,7.5,3.4,10.2,3,14.7,8.4.7.9,1.7-.8,1.4-1.3-5.7-10-17.5-7.1-21.7-16.7-1.9-4.3-2.5-7.1-1.6-14.8,14.6,9.4,11.4,5.4,15.9,10.9.5.7,1.6.2,1.4-.9-1.6-8.1-15.2-8-23.2-21.5-.9-1.5-.6-5.6.4-9,2.1,2.3,12.7,6.9,15.4,9.1.5.5,1.9,0,1.5-1-1.5-5.1-16-7.6-19-15.8-1.8-4.9-1.8-7.2-.4-13.3,1.2,2.3,17.3,10.3,18.1,10.3s2-1.1,1.1-1.8c-10.1-7.9-17.9-6.6-20.2-17.1-.7-3.3-2-6.2.9-14.2,6.3,6.1,20.7,11.5,22.2,17.3.2.7,1.4,0,1.6-.4.1-.5-.3-3.9-.1-7.9.5-11.4,12.4-35,27.1-53.6,3.6-4.6,12.5-16,19-22,10.4-9.7,20-19.1,22.5-30.7,1.7-8-.5-15.9-5.7-19.5-2.7-1.9-6-2.5-9.5-1.7,1-2.7,3-5,5.5-6.4,1.9-1.1,3.9-1.6,6.2-1.6,6.4,0,10.1,3.2,11.3,7,1.4,4.4-.4,8.9,1.3,10.6.3.3.8-.3.9-.8,1.8-8.7,2-9.5,3.2-14.3,1.2-4.8,3.9-9.4,6.7-14.2,3.4-5.8,6.8-11.7,8.2-18.7,2.9,3.1,4.1,6.6,4.1,14.1,0,14.6-16.8,31.3-12.9,31.3s13.7-14.5,14.9-24.6c10.1,20.8-6,32.3-14,44-.8,1.2-.8,2.1,0,2.1,2,0,15.2-15.7,16.5-18.8,0,4.9.9,11.3-3.1,18.1-3.1,5.3-12.5,10.9-17.5,15-.4.3-.1,1.4,1.3,1.4,2.3,0,15.4-9.4,16-10.5,0,2.2-.3,10.4-9.7,16.4-.3.2-1.1.6-1.7.6-1.6,0-3.3-1.4-6.3-1.4s-7.3,1.1-6.2,2.9c5.2-1.8,12.4,1.6,13.8,3,1.4,1.4,3.9,4.8,3.4,9-.4,3.6-2.8,7.1-7,10.3-.7-3.6-2.1-9-7.2-11.7-8.8-4.6-18.5-2.8-30.1,8.1-11.2,10.6-28.1,27.7-35.5,57-7.7,30.6,1.6,57.4,18,87.9-1.5,6.8-1.6,13.1,1.8,17.7.5.7,1.4.8,2.1.3.7-.5.8-1.4.3-2.1-3-3.9-2.6-9.7-1-16.2h0s0,0,0,0c1.1-4.3,2.7-9,4.3-13.5,2.2-6.2,4.2-12,4.9-17.1,7.5,8.5,2.7,20.7,1.1,25.6-1.4,4.5-2.7,8.7-2.7,16s.4,1,1,1,1-.4,1-1c0-7,1.3-11.1,2.6-15.4,1.3-4.2,3.4-7.9,3.8-15.9,3.1,7.5,5.7,19,2,34.5-.4,1.4-.8,2.7-1.3,4.1-.2.8.2,1.6,1,1.9.2,0,.3,0,.5,0,.6,0,1.2-.4,1.4-1,.5-1.4.9-2.7,1.2-4,11-36.2,15.5-66.6,13.6-92.7-1.9-26-9-43.4-23.8-58.1,4.4-4.4,8.9-8.5,13.7-12,4.8,3.8,29.9,40.3,29.9,58.6s-.8,7.6-.8,8c0,.4,1.2.9,1.6.4,2.6-3.8,4.6-5.6,9.7-9.3,5-3.6,11.7-8.1,15.8-12.4.2,3.2,2.7,9.9-4,19-2.6,3.5-4,6-11.7,10.8-2.3,1.5-5.1,4.1-7.9,6.4-.4.3.3,1.2.6,1.1,1,0,10.2-6.8,14.3-9.5,3.3-2.2,8.2-8.1,9.2-9.8.7,2.3,1.5,5.6,0,13.2-.6,3.1-4.9,12.1-10.6,16.7-7.3,6-11.4,5-17.2,12.4-.4.4.4.9.8.7,2.9-2,4.5-3.1,9-5.7,2.8-1.6,8.7-4.5,10.9-6.2,4.5-3.6,5.8-7.4,5.8-7.4.3,6.7,0,9.1-3.7,15.9-1.2,2.3-7.2,8.6-10.4,11-7.1,5.2-12.6,8-12.6,9.9s.3.8,1,.8,2-2,3.7-3.3c.8-.6,4.5-2.2,8.1-4.6,4-2.6,7.9-5.8,7.9-5.8.5,2.9-1.7,16.4-6.1,20.3-10.9,9.6-20.2,11.6-20.2,15.2s.8,1,1.2.7c6-5,17.7-10.3,17.7-10.3-.7,4.7-2.9,11.2-7.9,15.5-4.5,3.9-9.1,5-12.3,6.5-2,1-6.3,4.5-6.3,5.5s1.1,1.2,1.9.3c3.8-4.3,8.2-2.6,14.3-7.2-1.9,6.4-6,14.4-14.9,19.1-2.5,1.3-15.7,2.7-29,2.9-12.6.2-25.2-.7-28.9-1.6-10.3-2.5-14.7-9.1-16.9-15.6h0ZM390.7,271.7c0,5.2-2.4,12-5,19.3-1.2,3.6-2.5,7.2-3.5,10.7-15.1-28.7-23.5-54.1-16.2-82.9,5.1-20.2,14.8-34.3,26.8-46.8,14.2,14.1,21.1,30.9,22.9,56.1,1.6,21.4-1.2,45.7-8.5,73.9-.8-15.4-7.6-25.8-13.9-31.7-.9-.9-1.8-1.7-2.3-1.5-.5.3-.4,2.3-.4,2.8ZM367.7,338.9c6.3.9,14.8,1.6,23.5,1.6,13.2,0,27.3-1,33.3-2.7-2.5,7.7-11.8,17.5-15,18.1h-26.2c-6.4-4.1-13.1-7.1-15.5-17h0ZM325.7,197.6c-16.5,0-24.1-16.6-28-20.5-4.6-4.6-11-10.3-12-9-.8,1,2.4,5,4.7,7,3,2.7,7.4,9.1,8.8,10.9,2.4,3.4,5.1,8.8,5.1,21.7s-1.4,16.3-6.7,22.5c-1-7.7-4.2-17.5-8.2-25.2-5.1-10-10.2-16.6-10.8-14.6-.5,1.8,3.8,9.2,6.2,13.9,2.2,4.3,5.5,10.5,9.4,30.2,1.6,8.1,5.1,15.8,10.1,19.9-1.8,0-26.2-4.3-26.2-23.7s.2-5.3.2-10.5c0-.7-2.3-1.1-2.3,0,0,22.1-8.4,32-8.4,44.5-1.8-2.3-17.6-15-10.8-42.9,0,0,.1,0,.2,0,16.4,2.4,20.4-9.8,20-9.9-1.1-.2-9.6,1.6-13.5-10.2,7.1-7.4,5.5-11.8,9.8-17,8-10,11.1-18.4,11.7-22.4.9-5.6-.5-8.4-.5-8.4,7.4,3,12.4,2.4,15.6.7,2.8,1,7.3,4.4,10.3,9.1,1.9,3,2.7,6.6,4.1,10.4,4.4,12.2,7.1,21.3,11.4,23.4ZM315.3,117.2c1.8,0,3.5-.3,5-1,.7-.3,1.3-.6,1.9-1.1,0,4.7-1.3,9.7-5.2,12.7-5.2,4.1-12.8-7.7-16.2-4.8-1.9,1.6,8.8,6.4,11.7,10.8,2.9,4.4,4.6,8.5,3.1,15.1-2.3-4.5-14.3-17-16.1-14-1.3,2.3,20,14.4,15.8,32.2-2-6.4-8-12.1-12.5-14.5,2.2-2.2,2.8-4.7,2.5-4.6-8.3,2.8-12.2-4.9-12.2-5,5.1-13.4,3.6-21.9,1-30.3,3.5-.3,8.8.8,9.6,1.1,3,1.2,7.3,3.3,11.7,3.3h0ZM223,42.4c1.2.1,3,.6,4.8,1.6,1.3.7,2,1.7,2.7,2.7.9,1.2,1.9,2.7,4,2.7s1.8,0,2.2.1c.7,1.2,1.7,1.8,2.7,2,.3.9.7,2,.7,2.6,0,5.3-9.1,7.2-6.7,9.6,2.2,2.2,7.7-4.1,8.3-4.1s6.4,6.2,8.9,3.8c2.8-2.8-6.4-2.5-6.4-9.3s1.6-5.1,2-5.4c.4-.3.8-.4,3.2-.7,2.3-.3,3.3-2.9,4.5-5.2,1.5-2.9,3.2-6.3,6.2-6.3s3.4,1.3,5.1,5.3c1.2,2.6,2.6,5.9,6,6.3s4,4,4,5.4c0,7.7-9.8,6.8-7.3,9.3,2.3,2.3,7.8-2.5,8.3-2.5s7.3,6.4,9.6,4.1c2.8-2.8-6-1.9-6-7.7s1.7-7.4,7.7-7.4h1.2l1.1-1.1c1.7-1.7,5.4-5.4,8.6-6.2-1.8,3.3-6.1,14.1-8,27.1-14.3-.3-27.6-.6-33.9-.9-2.3-.1-3.4,2.1,0,2.4,7.5.6,28.8.9,33.5.9-.2,1.8-.4,3.7-.5,5.6-8.4.9-53.2,0-57.3-.3-.6-6.3-2.4-23.2-9.2-34.3h0ZM217.1,118.3c1.5-.4,3.7-1.2,5.9-2.3-.3,1.8-.7,4.7-.9,8.7l-.6-.6c-1.2-1-3.7-4.7-4.4-5.9h0ZM217.9,135.6c-.9,0-2.3.1-4.3.3l-2.1.2c-2.4.2-5.9.4-9.5.4s-7.5-.3-10.4-.9c-5.8-1.2-10.3-6.5-10.8-12.5-.3-3.8,1-7.1,3.7-9.7-.2,3.4.7,6.3,2.7,8.8,5.4,6.9,17.3,7.9,23.9,7.9s7.8-.4,9-.6l2-.3c0,2,0,4,0,6.4-.8,0-3,0-4.1,0h0ZM203.1,166c-.7,3-.4,5.3,1.2,7.1,2.3,2.5,6.9,2.7,11.9.3,2.7-1.3,5.9-3.8,9.4-7.6,3.5-3.9,8.5-8,11.6-9.6,0,4.9,8.3,9.4,9.3,9.4s2.2-.9,2.2-2.2c0-2.9-3.4-2.2-.5-9.4,6.5.2,8.5-4.9,9.2-8.8,6.7,10.8,17.6,4.9,16.3,3.1-7-2.2-6.5-12.6-6.6-15.1,3.7-4.9-.4-10.7-1.6-12,2.7-.2,4.6-1.6,5-3.2,2-1.2,2.1-3.9,2.1-4.5s0-3.1-1.6-3.1-1,2.7-2.5,2.7-9.9-6.7-13-6.7-1,.5-2.8.5-2.6-1-3.4-1-1.7.8-1.7,1.2c0,1,4.2,1.8,9.2,3.3,2.2.7,4,3.4,6.3,4.1,3.3,1.1,6,1.3,6.4,1.3,0,1-2.4,3.2-5.1,3.2s-5.9-3.3-9.1-3.3c-4.7,0-4.5,1.1-4.5,1.1,5.5,1.8,9.9,4.5,12.6,7.3,1.8,1.8,1.6,4.7,1.9,6.1-4-4.9-7-5.8-9.8-5.8s-3.1.5-3.1,1,.5,1,1.1,1c3.4,0,5.1,1.5,6.7,2.8,4.5,3.7,3.5,7.6,4,12.3.3,2.8,1.1,5.3,2.7,7-5.6,0-10.8-12.7-14.7-12.7s-2.2.5-1.5,1c3.1,2.8,7.1,14.2-1.8,14.2,0-.6,1-1.9,1-5.7s-.6-2.9-1.1-2.9-1.6-.3-1.6,3.9-3.6,4.5-3.6,14.2-4.2-4.8-4.2-6.2,1.2-1.7,1.2-3.2-.5-3.9-.9-3.9c-1.4,0-2.7,3.2-2.7,4-.7.3-7.5,4.9-7.5,4.1,0-2.8,4.6-5.4,4.6-7.9s0-.9-.8-.9-4.5,5.8-5.9,5.8c-2.3,0-2.6.8-3.2.9,0,0,0,0,0,0,0-1.8,2.8-5.7,1.5-5.7s-5.2,6.3-12.1,7.6c1.3-2.2,2.3-4.4,3.2-6.5,1.2-2.8,3.3-6.6,4.7-7.9,2.7-2.6,7.4-1.6,10.7-1.6,1.2,0,2,0,2.9,0,3.8,0,6.4-1,7.9-3.1,2.2-3.2.7-7.9-1-11.3-.2-7.1-3.2-10.3-5.7-11.8-4.4-2.6-10.2-1.7-14,.4-3.9,2.1-8.4,2.7-10,2.7-2.6,0-4.4-.4-5.6-1.5-1.3-1.3-2-3.4-2.2-6.2.9-1.3,3.4-3.2,4.4-4,1.3-1.1-1.6-1.6-2.8-.7-1.2.9-2.1,1.2-2.7,1.3-1.7-1.8-1.8-2.5-1.8-2.5.1-.5,1.8-1.7,3.1-2.6l.3-.2c4.2-3,10-6.3,14.7-8.1l.7-.3.5-.6c1-1.2,1.7-2.3,2.3-3.3,1.3-2.1,2.1-3.4,7.3-5.2,0,0,2.3-.8,3.8-.8s48.6.3,55.9.2c0,0-2.2,1.6-4.6,5.3-1.2-1.6-3.9-4.9-3.9-2.7s.4,1.9,1.3,3c1.4,1.7,2.3,3.2,3.4,3.2s6.3-9.2,17.3-10.1c1.4-.1,2.2,3.2,2.9,5.9l.3,1.5c1.9,8.2.5,16.8-6.9,21-8.4,4.7-12.8-5.1-13.8-4-1.7,1.8,1,4.6,4,9.3,3.4,5.3,5.5,18.4,1.2,26.4-4.6-15.8-11.9-21.3-12.6-18.9-.2.7,4,4.7,6.5,10.7,2.5,6,4.5,19.5,15.3,19.5s-7.5,4.5-16-.5c-7.8-4.5-7.4-10.8-9.5-9.8-.7.3,1.1,7.8,4.1,9.6,3.3,2,6.3,13.8-4.6,27.8,1.1-15.8-10.6-26.5-12-25.1-1.6,1.7,8.4,8.6,8.4,24.2s-6.5,15.8-8.4,19c-5.8-15-8.5-15.6-12.1-20.8-2.2-3.3-2-5.6-3-5.6-1.4,0-.9,2.7,1.3,7.9,1.9,4.5,7.7,8.4,9.9,18.7,1.6,7.3,4.9,17.9,13.6,17.9-7.5,6.8-18.3,4.6-23.2.5-4.2-3.5-7.6-9.5-10.4-12.9-3-3.5-8.7-9.2-9.8-7.8-1.2,1.6,1.6.5,9.8,13.5,4.4,7.1,8.9,11.8,13.7,13.1-1.4,17.2-18.4,28.8-24.5,28.8,3.3-3.3,9.7-21.8,9.7-22.4,0-.9-.8-2.3-1.4-1.7-4,4-4.9,12.4-11.1,21.3-4.7,6.7-12.2,10.9-14,10.9,6.5-15.4,3.1-17.9,6-29.1,2.3-9.1,10.3-16.7,8.2-18.9-6.1,0-10.5,27.6-41.9,22.9,8.3-2.9,15.1-13.1,23.5-19.1,1.4-1,1-3.1.6-3.1-4.5,0-22,22.2-37.7,22.2,9.4-7.9,20.4-40.3,37.1-40.3s13.9-7.7,13.9-9.1-11.1,6.1-17.4,6.1c-11.3,0-12.5-16.6-.2-23.7h0ZM224.5,126c.3-6.3,1-9.9,1.2-11.2,2.9-1,6.4-1.2,9.1.4,2.8,1.6,4.2,4.9,4.3,9.6v.4s.2.3.2.3c.9,1.8,1.5,3.5,1.8,4.9-8.4-3.9-14.3-4.3-16.5-4.4h0ZM241,133.2c0,.3-.2.6-.4.9-.9,1.3-2.9,1.9-6,1.8-1.2-.9-5.2-4-7.2-7.1,2.9.4,7.6,1.4,13.6,4.4h0ZM230.2,135.7c-1.7-.1-3.6-.2-5.7-.2,0-2.5,0-4.6,0-6.6,1.2,2.5,3.7,5,5.7,6.8h0ZM132,70.1c2.2-1.9,5.1-3.9,6.4-6.4.9,1.6.2,15.7-6.2,15.5-1.6,0-3-1.2-3.5-2.7-.7-2.2.9-4.3,3.2-6.4ZM86.3,54.6c4.3-.5,9.2,1.1,13.7,5.9,1.5,1.6,1.7,3.6.8,5.4-.9,1.7-2.6,2.8-4.3,2.7-2.2,0-3.2-2-4.8-4.9-1.6-2.9-4.8-8.1-5.4-9.1h0ZM65.7,97.5c-.6-.3-2.1-1-2.3-1.3.3-1.2,5.9-4,9.8-4.3s6.1,2.5,6.5,3.5c.7,1.9.3,4-1,5.2-1.7,1.5-4.5,1.4-8.1-.2,0,0-3.4-2.1-4.9-2.8h0ZM96.3,149.8c-2.1,0-5.6-.4-8.3-2.4,2.1-.7,4.3-2,6.3-4.7h0c1.6-2,3.9-2.9,6.1-2.3,1.7.4,2.9,1.6,3.2,3,.3,1.9-1.7,6.4-7.3,6.4ZM171.7,209.6c.4-.2-.2-1.1-1.3-1.1s-5.7,1.8-11.3,3.1c-5.6,1.3-8.6,1.5-12.8,4.5,0-5.5,1.4-9.1,2.1-11.1,2.3-6.7,10.2-3.8,10.2-5.7s-1.6,0-14.1,0-4.3-2-6.9-4.2c6.9,0,13.8-4,13.8-4.4,0-.7-.3-.8-.8-.8s-14,4.2-18.9-.7c3.7-1.6,15.6-8.6,12.8-8.6-5.3,0-9.1,5.2-15.6,5.2s-7.2,1.9-8.2,2.9c.6-4.5,2.8-8.4,4.3-10,2.9-3.3,11.5-5,12.7-7,.2-.3-.2-1.3-.9-1-11.5,5.9-19.6-2.9-20.2-5.2.9.5,2,.9,3.2.9s2.5-.4,3.7-1.2c1.6-1,2.5-2.8,2.7-4.9.4-3.7-2.6-9.6-6.6-13.2-1.2-1.1-2.6-7.1-5.1-4.9,0,.5,1,2.8-.8,4.9-2.9,3.4-5.1,4.9-7.6,4.9s-2.4-.4-3.7-1c4.1-3.4,4.3-6.6,4-8.3-.4-2.6-2.6-4.7-5.4-5.4-1.9-.5-3.8-.3-5.6.5-.5-2.3-.7-6.1,5.1-10.7,1.4-1.1,4.1-.8,5.5-.8,2.5-3.2-2.7-1.9-5.6-4-2.1-1.6-5.3-4.6-6.8-6.2,0,0,3-5.8-1.9-4.3-.9,4.9-3.9,4.7-6.6,4.7-4,0-7.2-.9-9.4-2.7-2.5-2-3.9-5.4-4-9.9,1.3.4,2.5.6,3.6.6,2.6,0,4.2-1,5.2-1.9,2.2-2,2.9-5.3,1.9-8.4-.9-2.7-3.1-4.6-5.9-5.3,1-.9,2.6-2,4.9-3,3.5-1.5,12.7.4,14.9,11.2.6,0,1.4-.4,1.4-2.4,4.1,4.1,22.7,18.1,24.2,13.8-10.5-6.6-17.5-12.3-24.4-19.7-.2-.2,2.4-2.7,2.3-2.9-.1-.3-1.2-.9-1.7-.9s-2.4,1.5-2.4,1.5c0-.4-6.5-5.3-12.4-4.3-.2-3.8-.7-13.3,5.7-17.2,2.1,5.2,5.6,6.3,7.2,6.3,3.4,0,5.9-1.7,7.2-4.3.9-1.8,1.1-3.8.5-5.6,4-.3,14.4,6.1,6.2,17.1,1.8,1.5,3.1-.9,3.5-1.5,1.3,6.5,3.1,10.7,6.8,15.8,3.5,4.9,4.8,7.4,7.1,7.4s-.5-3.6-2.7-7.3c-1.6-2.9-3-4.7-3.6-5.9.3-.2,2-1.1,1.9-1.4-.7-1.6-2.5-1.6-3.5-2-1.8-6.4-5.1-14.2,3.7-14.2s2.9.3,4.2.8c-1.8,2.2-2.4,4.7-1.7,7,.8,2.6,3.1,4.8,6.7,4.8s3.8-.8,5.3-2.4c3.5,6.1,2.5,8.5.8,12-.7,1.5-3.9,1.9-4.9,1.9,0,2,3.3.5,2.5,3.2-1.2,4.6-1.5,9.9,6.6,19.4,11.8,13.9,19.9,21.4,27,27.9,7.4,6.9,13.9,12.8,22.5,24.5l.5.7c-.7,1.2-1.2,2.4-1.6,3.6-5.3-6.4-11.8-13.1-16.7-18.1-3-3.1-5.4-5.5-6.6-7-.4-.4-1-.5-1.4-.1-.4.4-.5,1-.1,1.4,1.3,1.5,3.7,4,6.7,7.1,5.2,5.2,12.1,12.3,17.5,19-1.7,7.9,1.4,15,4.6,16.6-23.9,23-18.4,31.9-35.3,42.8-1.6-7.9-2.9-18.4,11.8-25.2h0ZM69,249.9c.5,0,1-.1,1.5-.1,1.2,0,2.2.2,2.9.3,4.2.9,7.1,3.3,7.8,4.6l.6,1.2c.5,1.5.4,3-.4,4.1-.8,1.1-2,1.5-3.3,1.5-4,0-6.1-6.8-9.1-11.6h0ZM67.4,275.8c7.2,0,5.7,4.4,8.3,4.4s0-2.4.9-2.4c1.5,0,.6.4,2.7.4,3.6,0,6.6-1.8,10-3.6,3.5-1.8,6.6-2.3,6.6-3.9s-.1-.9-.9-.9c-2.8,0-10.4,3.5-11.3,3.5s.4-2-.9-2c-1.8,0-1.8,3-4.3,3s-6.7-2.2-9.9-2.2-5.3-1.4-4.4-5.3c.5-2.5,2.6-5.8,6.2-7.5,0,0,2.7,5.3,7.9,5.3s4.1-1,5.4-2.8c1.1-1.5,1.5-3.2,1.2-5.1,3.6.7,4.7,2.2,6.1,3.9.4.5.8,1,1.3,1.6,0,1.3,0,2.8.7,2.8s1.2-.3,1.3-1c2.1,1.5,5.1,2.6,10.5,2.6,10.1,0,24-8.7,38.6-18,5.1-3.2,10.3-6.5,15.3-9.4l2-1.1c13.7-.2,14-2.5,16.2-2.5s.7,0,1.1.1c-3.1,1.6-6.3,3.3-9.4,5-9.3,4.9-18.1,9.5-21,11.4-.5.3-.6.9-.3,1.4.2.3.5.5.8.5s.4,0,.5-.2c2.8-1.9,11.6-6.5,20.8-11.3,3.7-2,7.6-4,11.3-6,2.1.6,5,1.3,10,1.3,10.3,0,21.3-5.8,21.3-7.4.8,6.4-3.6,31.2-9.2,31.2s-2,4.1,1.4,4.1,15.9-5.7,19.4-10.8c4.3.1,18.1-2.9,27.4-17.2,0,20.6,20.3,40.2,24.9,35.5-7.9-4.6-2.3-15.6,1-29.5,1.1,2.9,8.5,8.4,13.5,16.7,8.1,13.3,15.6,29.9,16.8,28.7,1.1-1.1-6.8-19.6-16.4-33.9.7,0,6.7,2.4,9.3,6.6,5.4,8.8,9.3,20.4,15.3,33.9,8.5,19,19.5,41.3,33,61.3,9.5,14.1,17.8,20,22,21.4.9.3,1.7.4,2.6.4,2.5,0,4.9-1,7.1-3,3.5-3.2,6.5-9.6,5.3-16.4h21.2v1.2c0,3.7-.9,9.7-2.6,15-2.9,9.5-7.8,12.4-6.6,13.5,1,1,3.6-4.1,17.4-9.4,5.3-2.1,13-5,19.3-9.3-2.5,7.9-8.9,18.1-19.1,20.3,0,0-15.7,3.1-15.7,5s7-.4,13.7,1.1c10.5,2.2,17.5,6.8,30.1,7-5.3,4.2-15.6,7.9-26.9,7.9-19.8,0-25-15-26.4-13.7-1.4,1.4,6.1,11.3,7.5,15.4,1.3,4.1,5.6,21-8.9,36.2,2.3-31.8-17.1-47.2-35.9-62.1-9.6-7.6-18.6-14.8-24.2-23.9-3.6-5.8-11.6-34-14.3-32.7-2.6,1.3,2.7,3.5,8.7,34.9,1.6,8.1-.3,44.6-1.5,47.4l-1.1,2.4,2.3,1.4c7,4.2,11.1,8.5,14.7,12.3,5.4,5.7,10.1,10.6,20.6,10.6s3.1,0,4.8-.3c-3.6,10.7-17.5,7.3-19.8,8.8-.4.3-1.2.8-.6,1.3,3.6,2.5,14.4-.3,14.4-.3-3,7.7-17.8,9.2-20.1,10.1-.8.3.5,1.2,1.6,1.4,2.1.4,1.4-.5,5.2-.4,3.8,0,8.4.6,14.5.6-1.2,1.6-6.9,6.3-21.5,5.9-.9,0-1.7.9-.7,1.3,3,1.1,10.8.6,13.6,1.4-1.3,2.3-4.5,6.2-18.3,6.2-1.4,0-.9,1.6-.1,1.6,8.4,0,9.5,3.5,12.6,4.7,3,1.2,3.9-.3,4.7,0-3.5,3-3.2,4.3-22.1,4.1-.6,0-1.1.4-1,.9.9,3.8,13.4,2.2,13.4,5.2-7.2,2.8-6,2.9-14.6,2.9s-1.4,1.8-1.4,1.8c0,0-.3,1.8,2.8,1.8s4.5,3,6.8,4.3h0c-5.1-2.5-8.1-.9-9.3,0-2.1,1.7-2.8,4.6-1.7,7.3.7,1.8,2.6,3,4.4,4.2.3.2.6.4.9.6,0,0-.2,0-.3.2-.4.3-2,1-5,1s-3.5,0-9.8-4.8c-.9-.7-1.8,1.3-1.5,2.3.4,1,.8,2.6.6,2.9-.2.3-3,4.1-6.9,4.4-.7,0-.7,2.9.3,2.8,2.2-.4,4.2.5,4.8,1.1.6.6,2.6,4.2,2,8.7-.6,5.2-4.4,9-10.9,10.9.4-3.7-1.4-5.8-2.3-6.6-2.3-2.1-5.9-2.5-8.8-.9-1.3.7-4,2.7-4.2,7.4-1.7-1.3-7.9-12.8,3.1-16.9.7-.3.6-.8-.1-.8-.6,0-1.5.3-2.7.1,2-6.2,2.2-14.7,2.2-15.8,0-1.8-1.1-3.4-1.9-3.1-.7.3-1.5,7.6-2.6,12.6-1.5,6.8-4.8,10.7-5.5,14.3,0,.5-2-1.9-2.5-1.6-.4.3-1.7,1.4-1,2,8.8,7,1.4,13.2-4.4,15.1-3.6,1.2-7,1.1-9.1,0,3.6-3.3,3.5-6.6,3.2-8-.6-3-3.2-5.4-6.4-6-3-.5-6,.6-8.3,3.1-2.6-3.7-1-11.2,12.3-16.3,0,0,3.2,1.6,3.5,1.1,1.5-2.5-1.9-2-1.5-2.4,4-4.1,9.5-11.8,10.4-15.2.4-1.3-.8-2.3-1.7-1.3-.9.9-6.6,9.2-7.7,9.4-.8.1-1.1-1.2-2-.3-1,1-.7,3.3-1.5,3.9-12,9.7-12.6,1.6-12-1,1.1-.1,2.2-.6,3.2-1.3,2.9-2,4.6-5.6,4-8.6-.2-1.2-.9-3.1-3.3-4.4,1.3-1.8,3.9-2.6,7.7-2.6s4.5,2.4,5.4,2.8c3.1.2.2-2.4.6-2.3,1.2.2,2,.3,2.6.3,8,0,28.7-28.1,28.7-36.3s-4.2-10.2-7.5-13.7c-9.7-10.2-3.2-16.4-3.4-25.4,0-1.1-1.7-.9-2.3,0-1.5,2.2-2,13.1-4.9,19-2.8,5.9-5.3,10.1-7.9,13.8-4.8,7-8.7,12.7-8.8,24-.4-.5-.8-1-1.2-1.7-1.2-1.8-3.3-6.2-4.1-9.4-1.3-5.2,8.8-22.2,11.4-26.5.2-.3.1-.7-.1-.9-.3-.2-.7,0-.8.3-2.5,4.1-8.9,14.6-11.5,21.7-.6-6,0-12.8,3.8-21.5,2.5-5.7,4-5.6,6.4-8.7.4-.6-.3-1.2-.8-.7-.5.5-3.8,5.3-10.4,5.3s-7.8-.5-11-3.8c-1.5-1.6-2.4-3.7-2.8-6.3,2.1,1.5,4.9,2.9,8.1,2.9s1.5,0,2.2-.2c11.6-2.3,15.9-16.5,20.5-42.3,2.1-11.9,13.3-40.3,13.3-56s-.7-18.4-3.4-18.4,0,3.3-.6,20.2c0,7.3-5.6,25.3-6.4,30-1.3-.2-6.4-2-6.4-10.3s2.4-7.1,2.4-11.1c0-9.3-12.4-20.3-16.7-23,1.1,0,10.8.2,18.3,10.5,1.8,2.5,3.6.3,2.1-1.7-2.8-3.4-5.5-7.4-10.2-11.5-17.5-15.5-45.7-33.6-50.9-38,0,0,4.7-7.3,7.7-13.2.7,1.8,2.3,5.2,4.3,7.9,2.3,3.2,5.2,5.5,5.8,4.8.9-1-8-8.7-10.1-19.9-.7.4-2.3,1.8-1,4.9-2.1,4.2-5.3,9.9-12.4,16.3.3-.5,5.4-18.4.3-15-.7,4.3-2.5,10.4-3.4,14.1-1.2,5-3.3,9.2-1.3,15.9-2.3-1.6-4.2-4.3-6.2-8.1-1.9-3.7,4.2-17.2-1.8-15.7.7,3.7-.9,12-3.6,14.7-1.2,1.2-3.8,3.5-6.2,5.1,4.8-12.7,4.3-16.3-.3-16.5,2.3,3.9-1.2,11.1-4,19.8-.8,2.6-1.4,7.2-1.4,11-6-7.8-2.2-22.1-4.8-29.8-4.8,1.1-1.6,10-9,17.7,0-.9-.2-1.8-.6-2.6-1-2.3-3.2-3.7-6.1-3.7s-1.7.1-2.7.3c-10.1,2.6-14.5-1.9-15.2,2.2,1.5.8,3.7,1.6,4.1,4.6.6,4.4,0,7.7-4,9.9-.1-4.9-2.5-7-3.8-7.7-2.3-1.3-5.1-1-7.1.7-2,1.8-2.9,4.5-2.4,7.7-2.2-.5-4.7-2.5-6.7-5.4-.2-.4-1.2-3.9.2-6.7-4.8,0-4,5.7-4,5.7-2.7,1.3-6.5,2.2-9.5,2.3-2.9,0-2.5-7.6-7-1.7,7.7,5.9,1,14.3-3.7,17.9-3.1,2.4-10.3,1.8-10.3,1.8,1.7-2.9,2.1-5.9.9-8.4-1.3-2.8-4.2-4.5-7.3-4.3-2.9.1-5.4,1.8-7.1,4.6-.8-1.6-1.5-3.3-1.3-5.8.6-5.7,7.9-11.1,10.5-11.1s3.3.6,3.9.6,1.3,0,1.3-.6-2.6-1.3-3.2-1.3c2.9-1.9,4.7-3.3,8.6-7.3,3.9-4,7.6-8.4,7.6-9s.4-1.1-1.1-1.1-6.3,5.5-11.9,10c-4.7,3.8-9.8,6.5-9.9,6.5-.7,0-1.2-1.9-2-1.9s-1.6.6-1.6,1.9,1.2,1,1.2,1.7c-1.4.8-5.7,5.2-6.4,9.8-.4,0-.8-.2-1.3-.2-4.1-.7-8.5-1.8-9-6.3,5.1-.3,7-3,7.7-4.6,1.3-3,.3-7-2.2-9.6-2-2.1-4.6-3-7.3-2.8,1.6-3.6,5.3-5.7,9.6-5.7h0ZM56.3,285c3.3-1.6,5.8.5,6.7,1.4,1.8,1.8,2.5,4.5,1.6,6.4-.8,1.9-3.8,2.9-5.7,2.9s-2.7-.1-2.7-.1c-.6,0-1.4-.1-2.4-.1-3,0-5.7.7-7.9,2,.3-3.3,6.6-10.5,10.4-12.4h0Z"/>
    <path class="st0" d="M163.1,269.9c1,0,1.4-.7,1.4-1.3s.2-1.9-1-1.9-1.7,1.8-1.7,2.2.3,1.1,1.3,1.1Z"/>
    <path class="st0" d="M174.9,263.3c1.9,0,2.1-1.4,2.1-1.9s-1.2-.5-1.9-.5-.9-.2-.9-.4-.2-.5-.4-.5-1.3.6-1.3,1.3-.2,1.9,2.5,1.9h0Z"/>
    <path class="st0" d="M309.8,317.6c.5,0,1.6-.5,1.6-1.5s-.6-.8-1.1-.8-1.4.7-1.4,1c0,.5.4,1.3.9,1.3Z"/>
    <path class="st0" d="M279.8,314.6c0,.6,0,1.2,1.2,1.2s1.4-1,1.4-1.5-.5-.8-1.3-.8-1.3.6-1.3,1.1Z"/>
    <path class="st0" d="M278.6,313.2c.9,0,2.1-1.3,2.1-2.4s-.6-1.2-1.1-1.2-2.1,1.1-2.1,1.9.2,1.8,1.1,1.8h0Z"/>
    <path class="st0" d="M311.3,323.5c-.1.2-.4.3-.4.5,0,.4.2,1.2,1.5,1.2s1.1-1.1,1.1-1.4-.4-.9-.4-1.1-.1-.6-.5-.6-.8.3-1,.6c-.2.2-.1.6-.3.8h0Z"/>
    <path class="st0" d="M309.8,319.4c0,.5.2,1.7,1.1,1.7s1.3-1.1,1.3-1.7-.7-1.1-1.3-1.1-1.1.8-1.1,1.1Z"/>
    <path class="st0" d="M311.7,340.6c-2.7,0,1.5,2.4,3.6,25.6,1.4,15.2.4,28.4,1.8,28.4s1.8-3.3,1.8-18.6-4-35.4-7.2-35.4h0Z"/>
    <path class="st0" d="M313.1,326.7c0,.4-1,.3-1,1.3s.4.7.4,1.1.3.7.9.7,1.8-1.5,1.8-2.9-.7-1.2-1-1.2-.9.6-.9,1h0Z"/>
  </g>
</svg>